<svg height="181" viewBox="0 0 329 181" width="329" xmlns="http://www.w3.org/2000/svg"><g fill="none" fill-rule="evenodd"><path d="m0 0h329v181h-329z" fill="#fffefc"/><g transform="translate(94 20)"><path d="m140.5.5h-140v140h140z" fill="#fff6e5" stroke="#191d27"/><path d="m1 70h139v70h-139z" fill="#fff" opacity=".681106"/><g fill-rule="nonzero"><g fill="#bd1452" transform="translate(50 89)"><path d="m34 4h-2v-2c0-1.1-.9-2-2-2h-28c-1.1 0-2 .9-2 2v24c0 1.1.9 2 2 2h2v2c0 1.1.9 2 2 2h28c1.1 0 2-.9 2-2v-24c0-1.1-.9-2-2-2zm-30 2v20h-1.9964375c-.00125-.0010625-.0025625-.002375-.0035625-.003625v-23.9928125c.0010625-.00125.002375-.0025625.0035625-.0035625h27.9928125c.00125.0010625.0025625.002375.003625.003625v1.996375h-24c-1.1 0-2 .9-2 2zm30 23.996375c-.0010625.00125-.002375.0025625-.003625.003625h-27.9928125c-.00125-.0010625-.0025625-.002375-.0035625-.003625v-23.9928125c.0010625-.00125.002375-.0025625.0035625-.0035625h27.9928125c.00125.0010625.0025625.002375.003625.003625z"/><path d="m31.0909091 11.7894737c0 1.8603509-1.4652273 3.368421-3.2727273 3.368421s-3.2727273-1.5080701-3.2727273-3.368421c0-1.86035089 1.4652273-3.36842107 3.2727273-3.36842107s3.2727273 1.50807018 3.2727273 3.36842107z"/><path d="m32.7272727 28.6315789h-24.54545452v-4.2105263l7.15909092-12.6315789 8.1818182 10.5263158h2.0454545l7.1590909-6.3157895z"/></g><path d="m17.0289898 19.7974603c.1882846 0 .3227735-.0426455.4034669-.1279365.0806933-.085291.12104-.2214815.12104-.4085714v-3.8133334c0-.1320634-.0268978-.2338624-.0806934-.3053968-.0537955-.0715344-.1492827-.1251852-.2864614-.1609524s-.3321877-.0536508-.5850269-.0536508c-.3819486 0-.6549611.0398942-.8190377.1196826-.1640765.0797883-.2461147.2132275-.2461147.4003174v2.5752381h-2.8323371v-6.3307936h1.7591153c.1291094 0 .2286312-.0220106.2985655-.0660318.0699342-.0440211.1223849-.1265608.157352-.247619.0349672-.1210582.0524507-.2971429.0524507-.528254s-.0174835-.4071957-.0524507-.5282539c-.0349671-.1210582-.0874178-.2049736-.157352-.2517461-.0699343-.0467725-.1694561-.0701587-.2985655-.0701587h-4.9545726c-.12910938 0-.2286312.0233862-.29856545.0701587s-.12238494.1306879-.15735206.2517461c-.03496713.1210582-.05245069.2971428-.05245069.5282539s.01748356.4071958.05245069.528254c.03496712.1210582.08741781.2035979.15735206.247619.06993425.0440212.16945607.0660318.29856545.0660318h1.1781231v6.4133333h-1.1781231c-.12910938 0-.2286312.0233863-.29856545.0701588-.06993425.0467724-.12238494.1306878-.15735206.251746-.03496713.1210582-.05245069.2971428-.05245069.528254 0 .2311111.01748356.4071957.05245069.5282539.03496712.1210582.08741781.2035979.15735206.2476191.06993425.0440211.16945607.0660317.29856545.0660317zm6.3505679.1815873c.8176927 0 1.5331739-.170582 2.1464435-.511746s1.0853258-.8143915 1.4161686-1.4196826c.3308428-.605291.4962642-1.2931216.4962642-2.063492s-.1654214-1.4582011-.4962642-2.0634921-.802899-1.0785185-1.4161686-1.4196825-1.3287508-.5117461-2.1464435-.5117461c-.8176928 0-1.533174.1705821-2.1464435.5117461-.6132696.341164-1.0853258.8143915-1.4161686 1.4196825s-.4962642 1.2931217-.4962642 2.0634921.1654214 1.458201.4962642 2.063492c.3308428.6052911.802899 1.0785186 1.4161686 1.4196826.6132695.341164 1.3287507.511746 2.1464435.511746zm0-1.8736508c-.3873282 0-.7235505-.0866666-1.0086671-.26-.2851165-.1733333-.5043335-.4195767-.6576509-.7387301-.1533174-.3191535-.2299761-.6933334-.2299761-1.1225397 0-.4292064.0766587-.8033863.2299761-1.1225397s.3725344-.5653968.6576509-.7387302c.2851166-.1733333.6213389-.26 1.0086671-.26.3873281 0 .7235505.0866667 1.008667.26.2851166.1733334.5043336.4195768.657651.7387302s.2299761.6933333.2299761 1.1225397c0 .4292063-.0766587.8033862-.2299761 1.1225397-.1533174.3191534-.3725344.5653968-.657651.7387301-.2851165.1733334-.6213389.26-1.008667.26zm12.0071727 1.6920635c.1291094 0 .2286312-.0220106.2985655-.0660317.0699342-.0440212.1223849-.1265609.157352-.2476191.0349672-.1210582.0524507-.2971428.0524507-.5282539 0-.2311112-.0174835-.4071958-.0524507-.528254-.0349671-.1210582-.0874178-.2049736-.157352-.251746-.0699343-.0467725-.1694561-.0701588-.2985655-.0701588h-2.3158996v-.784127c0-.5832804.1089361-1.1115344.3268082-1.5847619s.5070233-.844656.8674536-1.1142857c.3604304-.2696296.7477586-.4044444 1.1619845-.4044444.3227735 0 .6347878.085291.936043.255873.086073.0440212.1667663.0660317.2420801.0660317.134489 0 .2622535-.0632804.3832935-.1898412.1210401-.1265609.2299761-.3136508.3268082-.5612699.096832-.247619.145248-.4622222.145248-.6438095 0-.2861376-.1183503-.5172487-.3550508-.6933333-.4034668-.3081482-.8338314-.4622223-1.2910938-.4622223-.5379558 0-1.0691871.2159789-1.593694.6479366-.5245069.4319576-.9884937 1.0468783-1.3919606 1.8447619v-1.7911111c0-.18709-.0390017-.3205291-.1170053-.4003175s-.2084579-.1196825-.3913629-.1196825h-2.2109982c-.1291093 0-.2286312.0233862-.2985654.0701587-.0699343.0467725-.1223849.1306878-.1573521.251746-.0349671.1210582-.0524507.2971429-.0524507.528254s.0174836.4071957.0524507.5282539c.0349672.1210583.0874178.2035979.1573521.2476191.0699342.0440212.1694561.0660317.2985654.0660317h.9441124v4.2425397h-1.1861925c-.1291093 0-.2286312.0233863-.2985654.0701588-.0699343.0467724-.1223849.1306878-.1573521.251746-.0349671.1210582-.0524507.2971428-.0524507.528254 0 .2311111.0174836.4071957.0524507.5282539.0349672.1210582.0874178.2035979.1573521.2476191.0699342.0440211.1694561.0660317.2985654.0660317zm7.8433951.1815873c.5379558 0 1.0866707-.0522751 1.6461447-.1568254.559474-.1045502 1.1081889-.247619 1.6461446-.4292063.1398685-.0495238.2407352-.1141799.3026001-.1939683.061865-.0797883.0927974-.1912169.0927974-.3342857s-.0268978-.3164021-.0806934-.52c-.0699342-.264127-.1479378-.4512169-.2340107-.5612698s-.1882845-.1650794-.3066348-.1650794c-.0645547 0-.1291094.0110053-.1936641.0330159-.9736999.3026455-1.8774656.4539682-2.711297.4539682-.5164376 0-.9427675-.1169312-1.2789899-.3507936-.3362223-.2338625-.5554393-.5708995-.6576509-1.0111111h5.180514c.182905 0 .3133593-.0385186.3913629-.1155556.0780035-.077037.1170053-.2091005.1170053-.3961905 0-.8253968-.1465929-1.5586243-.4397788-2.1996825s-.7275852-1.1417989-1.3031979-1.5022222c-.5756126-.3604233-1.2722653-.540635-2.0899581-.540635-.8123132 0-1.5224148.1705821-2.1303049.5117461-.60789.341164-1.0732217.8143915-1.3959952 1.4196825-.3227734.605291-.4841602 1.2931217-.4841602 2.0634921 0 .775873.1546623 1.4650793.4639869 2.067619s.7598625 1.0743916 1.3516139 1.4155556c.5917513.341164 1.2964734.511746 2.1141661.511746zm1.8075314-4.8450793h-3.5505081c.231321-.8474075.839211-1.2711112 1.8236701-1.2711112.4626419 0 .8432457.1114286 1.1418111.3342858.2985655.2228571.4935744.5351322.5850269.9368254zm5.4790795 4.663492c.182905 0 .3133592-.0398942.3913628-.1196825.0780036-.0797884.1170054-.2132275.1170054-.4003175v-2.8063492c0-.7703704.0739689-1.3564021.2219068-1.7580952.1479378-.4016931.3483263-.6025397.6011655-.6025397.1452481 0 .2514943.0687831.3187388.2063492s.1008667.3521693.1008667.6438095v4.3168254c0 .18709.0390018.3205291.1170054.4003175.0780036.0797883.2084579.1196825.3913628.1196825h1.0005978c.1829049 0 .3133592-.0398942.3913628-.1196825.0780036-.0797884.1170054-.2132275.1170054-.4003175v-2.8063492c0-.7703704.0739689-1.3564021.2219067-1.7580952s.3483264-.6025397.6011656-.6025397c.145248 0 .2514943.0687831.3187388.2063492.0672444.1375661.1008667.3521693.1008667.6438095v4.3168254c0 .18709.0390018.3205291.1170054.4003175.0780035.0797883.2084578.1196825.3913628.1196825h1.0005977c.182905 0 .3133592-.0398942.3913628-.1196825.0780036-.0797884.1170054-.2132275.1170054-.4003175v-4.7873016c0-.8419047-.1425583-1.4692063-.4276748-1.8819047-.2851166-.4126984-.6751345-.6190477-1.1700538-.6190477-.3819486 0-.7369994.1416932-1.0651524.4250794-.3281531.2833863-.6159594.7002117-.863419 1.2504762-.231321-1.117037-.7450688-1.6755556-1.5412433-1.6755556-.4088464 0-.7840706.1595768-1.1256725.4787302s-.6388224.7896296-.8916617 1.4114286v-1.1885714c0-.18709-.0390017-.3205291-.1170053-.4003175s-.2084579-.1196825-.3913629-.1196825h-1.4040645c-.1291094 0-.2286312.0233862-.2985655.0701587-.0699342.0467725-.1223849.1306878-.157352.251746s-.0524507.2971429-.0524507.528254.0174836.4071957.0524507.5282539c.0349671.1210583.0874178.2035979.157352.2476191.0699343.0440212.1694561.0660317.2985655.0660317h.4599522v5.4146032c0 .18709.0390018.3205291.1170054.4003175.0780035.0797883.2084578.1196825.3913628.1196825zm25.4829647 0c.1291094 0 .2286312-.0220106.2985655-.0660317.0699342-.0440212.1223849-.1265609.157352-.2476191.0349672-.1210582.0524507-.2971428.0524507-.5282539 0-.2311112-.0174835-.4071958-.0524507-.528254-.0349671-.1210582-.0874178-.2049736-.157352-.251746-.0699343-.0467725-.1694561-.0701588-.2985655-.0701588h-2.0657501v-6.4133333h1.9043634c.1291094 0 .2286312-.0220106.2985655-.0660318.0699342-.0440211.1223849-.1265608.157352-.247619s.0524507-.2971429.0524507-.528254-.0174836-.4071957-.0524507-.5282539-.0874178-.2049736-.157352-.2517461c-.0699343-.0467725-.1694561-.0701587-.2985655-.0701587h-5.826061c-.1291093 0-.2286312.0233862-.2985654.0701587-.0699343.0467725-.122385.1306879-.1573521.2517461s-.0524507.2971428-.0524507.5282539.0174836.4071958.0524507.528254.0874178.2035979.1573521.247619c.0699342.0440212.1694561.0660318.2985654.0660318h1.9043635v6.4133333h-2.0657502c-.1291094 0-.2286312.0233863-.2985654.0701588-.0699343.0467724-.122385.1306878-.1573521.251746s-.0524507.2971428-.0524507.528254c0 .2311111.0174836.4071957.0524507.5282539s.0874178.2035979.1573521.2476191c.0699342.0440211.169456.0660317.2985654.0660317zm6.7540347 3.2025397c.1291094 0 .2286312-.0233862.2985655-.0701587.0699342-.0467725.1223849-.1306879.157352-.2517461s.0524507-.2971428.0524507-.5282539-.0174836-.4071958-.0524507-.528254-.0874178-.2035979-.157352-.247619c-.0699343-.0440212-.1694561-.0660318-.2985655-.0660318h-1.3475792v-2.3028571c.2743574.3136508.5917513.5543915.9521817.7222222s.7504483.251746 1.1700538.251746c.7047221 0 1.3206814-.1760846 1.8478781-.5282539.5271966-.3521694.9306635-.8308995 1.2104005-1.4361905s.4196055-1.2821164.4196055-2.0304762-.1398685-1.4251852-.4196055-2.0304762-.6832039-1.0840212-1.2104005-1.4361905c-.5271967-.3521693-1.143156-.528254-1.8478781-.528254-.511058 0-.9763897.1224339-1.3959952.3673016-.4196055.2448678-.7692768.5874074-1.0490138 1.0276191v-.6933333c0-.18709-.0390017-.3205291-.1170053-.4003175s-.2084579-.1196825-.3913629-.1196825h-1.8882247c-.1291094 0-.2286312.0233862-.2985655.0701587-.0699342.0467725-.1223849.1306878-.157352.251746s-.0524507.2971429-.0524507.528254.0174836.4071957.0524507.5282539c.0349671.1210583.0874178.2035979.157352.2476191.0699343.0440212.1694561.0660317.2985655.0660317h.7020323v7.4450794h-.7020323c-.1291094 0-.2286312.0233863-.2985655.0701587-.0699342.0467725-.1223849.1306879-.157352.2517461s-.0524507.2971428-.0524507.5282539.0174836.4071958.0524507.528254.0874178.2035979.157352.2476191c.0699343.0440211.1694561.0660317.2985655.0660317zm.4518828-4.8946032c-.3442916 0-.656306-.0825397-.936043-.247619-.279737-.1650794-.5029886-.4085715-.6697549-.7304762-.1667663-.3219048-.2501495-.702963-.2501495-1.1431746 0-.4402117.0833832-.8212699.2501495-1.1431746.1667663-.3219048.3900179-.5653968.6697549-.7304762s.5917514-.2476191.936043-.2476191c.3335326 0 .6240287.0866667.8714884.26.2474596.1733334.4370891.4195768.5688882.7387302.1317992.3191534.1976988.6933333.1976988 1.1225397 0 .4292063-.0658996.8033862-.1976988 1.1225397-.1317991.3191534-.3214286.5653968-.5688882.7387301-.2474597.1733334-.5379558.26-.8714884.26zm10.0059773 1.8736508c.6778243 0 1.2574716-.1031746 1.7389421-.3095238.4814704-.2063492.8472803-.5007407 1.0974297-.8831746.2501495-.3824339.3752242-.8350264.3752242-1.3577778 0-.5337566-.1210401-.9629629-.3631202-1.287619s-.5783024-.5777778-1.008667-.7593651c-.2958757-.1210582-.6092349-.2118519-.9400777-.272381s-.7464137-.1210582-1.2467125-.1815873c-.5056785-.0495238-.863419-.1017989-1.0732218-.1568253-.3980873-.0990477-.5971309-.264127-.5971309-.4952381 0-.1925926.0901076-.3466667.2703228-.4622223.1802152-.1155555.4290197-.1733333.7464136-.1733333.5379558 0 1.0113569.0729101 1.4202032.2187302.4088464.1458201.7719666.3920635 1.0893605.7387301.1075911.1155556.303945.1733334.5890615.1733334.2635984 0 .4532278-.0398942.5688883-.1196826.1156604-.0797883.1734907-.2132275.1734907-.4003174v-1.7415874c0-.1870899-.072624-.3205291-.2178721-.4003174-.1452481-.0797884-.3900179-.1196826-.7343096-.1196826-.3389122 0-.5742678.0398942-.706067.1196826-.1317991.0797883-.1976987.2132275-.1976987.4003174v.0825397c-.6294083-.4016931-1.350269-.6025397-2.1625822-.6025397-.5540944 0-1.0530484.0949207-1.4968619.284762-.4438135.1898412-.7921399.4635978-1.0449791.8212698s-.3792588.775873-.3792588 1.2546032c0 .9024338.3711895 1.5627513 1.1135684 1.9809524.3173939.1815873.6710998.3150264 1.0611178.4003174.3900179.085291.8566945.1609524 1.4000299.2269841.4895397.0715344.8015541.1210582.936043.1485715.2367005.0550264.4155708.1238095.5366109.2063492.12104.0825397.18156.1925926.18156.3301587 0 .4567196-.4303646.6850794-1.2910938.6850794-.5002989 0-.960251-.0797884-1.3798565-.2393651s-.7638972-.4126984-1.0328751-.7593651c-.1183503-.1540741-.3416019-.2311111-.6697549-.2311111-.2635984 0-.4586073.0412698-.5850269.1238095s-.1896295.2146032-.1896295.3961905v1.8406349c0 .18709.0726241.3205291.2178721.4003175.1452481.0797883.390018.1196825.7343097.1196825.3442916 0 .5944411-.0398942.7504483-.1196825.1560071-.0797884.2340107-.2132275.2340107-.4003175v-.0660317c.6401674.3906878 1.3341303.5860317 2.0818888.5860317zm8.4566651 0c1.065152 0 1.952779-.6328042 2.662881-1.8984127v1.1968254c0 .18709.039001.3205291.117005.4003175.078004.0797883.208458.1196825.391363.1196825h1.807531c.12911 0 .228631-.0233862.298566-.0701587.069934-.0467725.122385-.1306878.157352-.251746s.05245-.2971429.05245-.528254-.017483-.4071958-.05245-.528254-.087418-.2035979-.157352-.247619c-.069935-.0440212-.169456-.0660318-.298566-.0660318h-.621339v-5.4146031c0-.18709-.039001-.3205291-.117005-.4003175s-.208458-.1196825-.391363-.1196825h-2.372385c-.129109 0-.228631.0220105-.298565.0660317-.069935.0440212-.122385.1265608-.157352.247619s-.052451.2971429-.052451.528254.017484.4071958.052451.528254.087417.2049735.157352.251746c.069934.0467725.169456.0701587.298565.0701587h.863419v1.3453969c0 .5062434-.084728.9822222-.254184 1.4279365s-.394052.8020106-.673789 1.0688889-.575613.4003174-.887628.4003174c-.338912 0-.580992-.1100529-.72624-.3301587s-.217872-.5447619-.217872-.9739683v-4.1104761c0-.18709-.039002-.3205291-.117005-.4003175-.078004-.0797884-.208458-.1196825-.391363-.1196825h-2.1303049c-.1291094 0-.2286312.0220105-.2985655.0660317-.0699342.0440212-.1223849.1265608-.157352.247619-.0349672.1210582-.0524507.2971429-.0524507.528254s.0174835.4071958.0524507.528254c.0349671.1210582.0874178.2049735.157352.251746.0699343.0467725.1694561.0701587.2985655.0701587h.6213389v3.4253969c0 .5447619.0995218 1.019365.2985654 1.4238095.1990437.4044444.4828156.7167196.8513146.9368254.3685.2201058.79752.3301587 1.28706.3301587zm8.303347-.1815873c.182905 0 .313359-.0398942.391363-.1196825.078003-.0797884.117005-.2132275.117005-.4003175v-2.8063492c0-.7703704.073969-1.3564021.221907-1.7580952s.348326-.6025397.601165-.6025397c.145248 0 .251495.0687831.318739.2063492.067245.1375661.100867.3521693.100867.6438095v4.3168254c0 .18709.039002.3205291.117005.4003175.078004.0797883.208458.1196825.391363.1196825h1.000598c.182905 0 .313359-.0398942.391363-.1196825.078003-.0797884.117005-.2132275.117005-.4003175v-2.8063492c0-.7703704.073969-1.3564021.221907-1.7580952s.348326-.6025397.601165-.6025397c.145248 0 .251495.0687831.318739.2063492.067245.1375661.100867.3521693.100867.6438095v4.3168254c0 .18709.039002.3205291.117005.4003175.078004.0797883.208458.1196825.391363.1196825h1.000598c.182905 0 .313359-.0398942.391363-.1196825.078003-.0797884.117005-.2132275.117005-.4003175v-4.7873016c0-.8419047-.142558-1.4692063-.427675-1.8819047-.285116-.4126984-.675134-.6190477-1.170054-.6190477-.381948 0-.736999.1416932-1.065152.4250794-.328153.2833863-.615959.7002117-.863419 1.2504762-.231321-1.117037-.745069-1.6755556-1.541243-1.6755556-.408847 0-.784071.1595768-1.125673.4787302s-.638822.7896296-.891661 1.4114286v-1.1885714c0-.18709-.039002-.3205291-.117006-.4003175-.078003-.0797884-.208458-.1196825-.391363-.1196825h-1.404064c-.12911 0-.228631.0233862-.298566.0701587-.069934.0467725-.122385.1306878-.157352.251746s-.05245.2971429-.05245.528254.017483.4071957.05245.5282539c.034967.1210583.087418.2035979.157352.2476191.069935.0440212.169456.0660317.298566.0660317h.459952v5.4146032c0 .18709.039002.3205291.117005.4003175.078004.0797883.208458.1196825.391363.1196825z" fill="#333d51"/><path d="m11.7271203 34.6416271c.1624018 0 .2774364-.0224036.3451038-.0672107.0676674-.0448072.1015011-.1120179.1015011-.2016322v-3.8208276h.2314225c.0649607 0 .1150346-.0108623.1502216-.032587.0351871-.0217247.0615773-.0624584.0791709-.1222013.0175935-.0597429.0263903-.1466416.0263903-.2606961 0-.1140546-.0087968-.2009533-.0263903-.2606962-.0175936-.0597428-.0439838-.1011555-.0791709-.1242379-.035187-.0230825-.0852609-.0346238-.1502216-.0346238h-1.5225165c-.0649607 0-.1150346.0115413-.1502216.0346238-.0351871.0230824-.0615774.0644951-.0791709.1242379-.0175935.0597429-.0263903.1466416-.0263903.2606962 0 .1140545.0087968.2009532.0263903.2606961s.0439838.1004766.0791709.1222013c.035187.0217247.0852609.032587.1502216.032587h.3735241v2.0733489h-.0162402l-1.68491827-2.79841c-.04330713-.0733208-.11909462-.1099812-.22736246-.1099812h-1.0718516c-.0649607 0-.11503458.0115413-.15022163.0346238-.03518704.0230824-.06157733.0644951-.07917085.1242379-.01759353.0597429-.02639029.1466416-.02639029.2606962 0 .1140545.00879676.2009532.02639029.2606961.01759352.0597429.04398381.1004766.07917085.1222013.03518705.0217247.08526093.032587.15022163.032587h.27202294v3.1650139h-.27202294c-.0649607 0-.11503458.0115413-.15022163.0346237-.03518704.0230825-.06157733.0644952-.07917085.124238-.01759353.0597429-.02639029.1466416-.02639029.2606962 0 .1140545.00879676.2009532.02639029.2606961.01759352.0597428.04398381.1004766.07917085.1222013.03518705.0217247.08526093.032587.15022163.032587h1.64025776c.0649607 0 .11503457-.0108623.15022167-.032587.035187-.0217247.0615773-.0624585.0791708-.1222013.0175935-.0597429.0263903-.1466416.0263903-.2606961 0-.1140546-.0087968-.2009533-.0263903-.2606962-.0175935-.0597428-.0439838-.1011555-.0791708-.124238-.0351871-.0230824-.08526097-.0346237-.15022167-.0346237h-.45066488v-2.3258982h.01624017l1.82701978 3.0346658c.0460138.0760364.0994711.131027.1603717.1649718.0609007.0339448.153605.0509172.278113.0509172zm3.0531531 0c.5359258 0 .9825306-.3122922 1.3398145-.9368767v.5906397c0 .0923298.0196236.1581828.0588706.1975587.0392471.039376.1048845.059064.1969122.059064h.9094498c.0649607 0 .1150346-.0115412.1502216-.0346237.0351871-.0230825.0615774-.0644951.0791709-.124238s.0263903-.1466416.0263903-.2606961c0-.1140546-.0087968-.2009533-.0263903-.2606961-.0175935-.0597429-.0439838-.1004767-.0791709-.1222014-.035187-.0217246-.0852609-.032587-.1502216-.032587h-.3126234v-2.6721353c0-.0923298-.0196235-.1581828-.0588706-.1975587-.0392471-.039376-.1048845-.059064-.1969121-.059064h-1.193653c-.0649607 0-.1150345.0108623-.1502216.032587-.035187.0217247-.0615773.0624585-.0791708.1222013-.0175936.0597429-.0263903.1466416-.0263903.2606961 0 .1140546.0087967.2009533.0263903.2606962.0175935.0597428.0439838.1011555.0791708.124238.0351871.0230824.0852609.0346237.1502216.0346237h.4344247v.6639604c0 .2498338-.0426304.4847319-.1278913.7046942-.085261.2199624-.1982655.3957965-.3390137.5275023-.1407482.1317059-.2896165.1975588-.4466048.1975588-.1705219 0-.2923232-.0543117-.365404-.162935-.0730808-.1086234-.1096212-.2688429-.1096212-.4806585v-2.0285418c0-.0923298-.0196235-.1581828-.0588706-.1975587-.0392471-.039376-.1048845-.059064-.1969122-.059064h-1.0718516c-.0649607 0-.1150345.0108623-.1502216.032587-.035187.0217247-.0615773.0624585-.0791708.1222013-.0175936.0597429-.0263903.1466416-.0263903.2606961 0 .1140546.0087967.2009533.0263903.2606962.0175935.0597428.0439838.1011555.0791708.124238.0351871.0230824.0852609.0346237.1502216.0346237h.3126234v1.6904514c0 .2688429.0500739.5030621.1502217.7026575.1001477.1995955.2429259.3537049.4283346.4623283s.4012677.1629351.647577.1629351zm7.1456774-.0896143c.0649607 0 .1150345-.0108623.1502216-.032587.035187-.0217247.0615773-.0624585.0791708-.1222013.0175936-.0597429.0263903-.1466416.0263903-.2606961 0-.1140546-.0087967-.2009533-.0263903-.2606962-.0175935-.0597428-.0439838-.1011555-.0791708-.124238-.0351871-.0230824-.0852609-.0346237-.1502216-.0346237h-1.1408724v-4.2526055c0-.0923299-.0196235-.1581828-.0588706-.1975588s-.1048845-.059064-.1969122-.059064h-1.7052184c-.0649607 0-.1150346.0115413-.1502216.0346237-.0351871.0230825-.0615774.0644952-.0791709.124238-.0175935.0597429-.0263903.1466416-.0263903.2606962 0 .1140545.0087968.2009532.0263903.2606961.0175935.0597428.0439838.1004766.0791709.1222013.035187.0217247.0852609.032587.1502216.032587h.9459902v3.674186h-1.108392c-.0649607 0-.1150346.0115413-.1502216.0346237-.0351871.0230825-.0615773.0644952-.0791709.124238-.0175935.0597429-.0263902.1466416-.0263902.2606962 0 .1140545.0087967.2009532.0263902.2606961.0175936.0597428.0439838.1004766.0791709.1222013.035187.0217247.0852609.032587.1502216.032587zm4.9857339 0c.0649607 0 .1150346-.0108623.1502217-.032587.035187-.0217247.0615773-.0624585.0791708-.1222013.0175935-.0597429.0263903-.1466416.0263903-.2606961 0-.1140546-.0087968-.2009533-.0263903-.2606962-.0175935-.0597428-.0439838-.1011555-.0791708-.124238-.0351871-.0230824-.085261-.0346237-.1502217-.0346237h-1.1408723v-4.2526055c0-.0923299-.0196236-.1581828-.0588707-.1975588-.039247-.039376-.1048844-.059064-.1969121-.059064h-1.7052184c-.0649608 0-.1150346.0115413-.1502217.0346237-.035187.0230825-.0615773.0644952-.0791708.124238-.0175936.0597429-.0263903.1466416-.0263903.2606962 0 .1140545.0087967.2009532.0263903.2606961.0175935.0597428.0439838.1004766.0791708.1222013.0351871.0217247.0852609.032587.1502217.032587h.9459902v3.674186h-1.108392c-.0649607 0-.1150346.0115413-.1502216.0346237-.0351871.0230825-.0615774.0644952-.0791709.124238-.0175935.0597429-.0263903.1466416-.0263903.2606962 0 .1140545.0087968.2009532.0263903.2606961.0175935.0597428.0439838.1004766.0791709.1222013.035187.0217247.0852609.032587.1502216.032587zm2.7527098.0896143c.2517228 0 .4966787-.045486.734868-.1364581.2381892-.0909721.4641983-.2192835.6780273-.3849341.0676674.1493571.1657852.2586594.2943532.3279068.1285681.0692474.2767597.1038711.4445748.1038711h.4547249c.0649608 0 .1150346-.0108623.1502217-.032587.035187-.0217247.0615773-.0624585.0791708-.1222013.0175936-.0597429.0263903-.1466416.0263903-.2606961 0-.1140546-.0087967-.2009533-.0263903-.2606962-.0175935-.0597428-.0439838-.1011555-.0791708-.124238-.0351871-.0230824-.0852609-.0346237-.1502217-.0346237h-.1258613c-.0866143 0-.1529283-.0305503-.1989422-.091651-.0460138-.0611006-.0690207-.1459626-.0690207-.254586v-1.177206c0-.4806584-.1326281-.8499779-.3978843-1.1079585-.2652562-.2579805-.6956209-.3869708-1.291094-.3869708-.2381892 0-.4926187.0217247-.7632883.065174-.2706696.0434494-.5264523.1086234-.7673483.1955221-.124508.046165-.186762.1384948-.186762.2769897 0 .0760363.0203002.1737974.0609007.2932831.0433071.1194857.091351.2043477.1441315.2545861.0527806.0502383.1130046.0753574.180672.0753574.0324803 0 .0717274-.0067889.1177413-.0203669.1921754-.065174.3863808-.117449.5826163-.156825.1962354-.0393759.3742007-.0590639.5338957-.0590639.2869098 0 .4872053.0434493.6008866.130348.1136812.0868987.1705218.2213202.1705218.4032644v.1181279c-.4060044-.0814676-.7890019-.1222013-1.1489924-.1222013-.4817919 0-.8566693.10455-1.1246322.31365s-.4019444.503741-.4019444.8839228c0 .2634117.0588707.4921997.1766119.686364.1177413.1941643.2875865.3435215.5095356.4480715.221949.10455.4858519.156825.7917085.156825zm.1299214-.8594825c-.1813486 0-.3200668-.0332659-.4161545-.0997978-.0960877-.0665318-.1441315-.1636139-.1441315-.2912464 0-.1303481.0493972-.2294669.1481916-.2973565.0987944-.0678897.2429259-.1018345.4323947-.1018345.3410437 0 .6902074.0366604 1.0474913.1099812v.2606961c-.1596951.1303481-.3308936.2328614-.5135956.30754-.1827019.0746786-.3674339.1120179-.554196.1120179zm4.1209447.7698682c.0920276 0 .157665-.019688.1969121-.059064.0392471-.0393759.0588706-.1052289.0588706-.1975587v-1.3849482c0-.3801819.0372171-.6693916.1116512-.8676293.0744342-.1982377.1752586-.2973565.3024733-.2973565.0730808 0 .126538.0339448.1603717.1018344s.0507506.1737974.0507506.3177234v2.1303762c0 .0923298.0196235.1581828.0588706.1975587.0392471.039376.1048845.059064.1969122.059064h.5034454c.0920277 0 .157665-.019688.1969121-.059064.0392471-.0393759.0588707-.1052289.0588707-.1975587v-1.3849482c0-.3801819.037217-.6693916.1116512-.8676293.0744341-.1982377.1752585-.2973565.3024733-.2973565.0730808 0 .126538.0339448.1603717.1018344s.0507505.1737974.0507505.3177234v2.1303762c0 .0923298.0196236.1581828.0588707.1975587.0392471.039376.1048845.059064.1969121.059064h.5034455c.0920276 0 .157665-.019688.1969121-.059064.0392471-.0393759.0588706-.1052289.0588706-.1975587v-2.3625587c0-.4154844-.0717274-.7250611-.2151823-.9287299-.1434549-.2036689-.3396903-.3055033-.5887064-.3055033-.1921754 0-.3708173.0699263-.5359258.2097789-.1651084.1398526-.3099167.3455582-.4344247.6171166-.1163879-.5512637-.3748774-.8268955-.7754684-.8268955-.2057089 0-.3945009.078752-.5663761.2362559s-.3214201.3896864-.4486349.6965474v-.5865663c0-.0923298-.0196235-.1581828-.0588706-.1975587-.0392471-.039376-.1048845-.059064-.1969121-.059064h-.7064477c-.0649607 0-.1150346.0115412-.1502216.0346237s-.0615773.0644951-.0791709.124238c-.0175935.0597429-.0263902.1466416-.0263902.2606961 0 .1140546.0087967.2009533.0263902.2606961.0175936.0597429.0439839.1004767.0791709.1222014.035187.0217246.0852609.032587.1502216.032587h.2314225v2.6721353c0 .0923298.0196236.1581828.0588707.1975587.0392471.039376.1048844.059064.1969121.059064zm13.3616046 1.5804703c.0649607 0 .1150346-.0108624.1502216-.032587.0351871-.0217247.0615774-.0624585.0791709-.1222014.0175935-.0597428.0263903-.1466415.0263903-.2606961 0-.1140545-.0087968-.2009532-.0263903-.2606961s-.0439838-.1011555-.0791709-.124238c-.035187-.0230825-.0852609-.0346237-.1502216-.0346237h-.3532238v-3.674186h.3532238c.0649607 0 .1150346-.0108624.1502216-.032587.0351871-.0217247.0615774-.0624585.0791709-.1222014.0175935-.0597428.0263903-.1466415.0263903-.2606961 0-.1140545-.0087968-.2009532-.0263903-.2606961s-.0439838-.1011555-.0791709-.124238c-.035187-.0230825-.0852609-.0346237-.1502216-.0346237h-.9500503c-.0920276 0-.157665.019688-.1969121.059064-.0392471.0393759-.0588707.1052289-.0588707.1975587v.3421637c-.1407481-.2172468-.3166834-.3862919-.5278057-.5071354s-.4452515-.1812653-.7023876-.1812653c-.3545771 0-.6644938.0868987-.92975.2606961s-.4682584.4100533-.6090066.7087676-.2111223.6327312-.2111223 1.0020507c0 .3693196.0703741.7033365.2111223 1.0020508s.3437504.5349702.6090066.7087676.5751729.2606961.92975.2606961c.2111223 0 .4073578-.0414127.5887064-.124238s.3410437-.2016322.4790852-.3564205v1.1364722h-.6780274c-.0649607 0-.1150345.0108623-.1502216.032587-.035187.0217247-.0615773.0624585-.0791708.1222013-.0175936.0597429-.0263903.1466416-.0263903.2606961 0 .1140546.0087967.2009533.0263903.2606962.0175935.0597428.0439838.1011555.0791708.124238.0351871.0230824.0852609.0346237.1502216.0346237zm-2.2736246-2.4155126c-.1678152 0-.3139767-.0427704-.4384848-.1283113-.124508-.085541-.219919-.2070634-.2862331-.3645673-.066314-.1575039-.099471-.3421636-.099471-.5539793 0-.2118156.033157-.3964753.099471-.5539792.0663141-.1575039.1617251-.2790263.2862331-.3645673.1245081-.0855409.2706696-.1283113.4384848-.1283113.1732285 0 .3302169.0407337.4709651.1222013.1407482.0814675.2530761.2016321.3369836.3604938.0839076.1588617.1258614.346916.1258614.5641627 0 .2172468-.0419538.4053011-.1258614.5641628-.0839075.1588617-.1962354.2790263-.3369836.3604938-.1407482.0814676-.2977366.1222013-.4709651.1222013zm4.6771706.9246566c.5359258 0 .9825307-.3122922 1.3398145-.9368767v.5906397c0 .0923298.0196236.1581828.0588707.1975587.0392471.039376.1048844.059064.1969121.059064h.9094498c.0649607 0 .1150346-.0115412.1502217-.0346237.035187-.0230825.0615773-.0644951.0791708-.124238s.0263903-.1466416.0263903-.2606961c0-.1140546-.0087968-.2009533-.0263903-.2606961-.0175935-.0597429-.0439838-.1004767-.0791708-.1222014-.0351871-.0217246-.085261-.032587-.1502217-.032587h-.3126233v-2.6721353c0-.0923298-.0196236-.1581828-.0588707-.1975587-.0392471-.039376-.1048845-.059064-.1969121-.059064h-1.1936529c-.0649607 0-.1150346.0108623-.1502217.032587-.035187.0217247-.0615773.0624585-.0791708.1222013-.0175935.0597429-.0263903.1466416-.0263903.2606961 0 .1140546.0087968.2009533.0263903.2606962.0175935.0597428.0439838.1011555.0791708.124238.0351871.0230824.085261.0346237.1502217.0346237h.4344247v.6639604c0 .2498338-.0426305.4847319-.1278914.7046942-.0852609.2199624-.1982655.3957965-.3390137.5275023-.1407482.1317059-.2896165.1975588-.4466048.1975588-.1705219 0-.2923232-.0543117-.365404-.162935-.0730808-.1086234-.1096212-.2688429-.1096212-.4806585v-2.0285418c0-.0923298-.0196235-.1581828-.0588706-.1975587-.0392471-.039376-.1048845-.059064-.1969121-.059064h-1.0718516c-.0649607 0-.1150346.0108623-.1502217.032587-.035187.0217247-.0615773.0624585-.0791708.1222013-.0175935.0597429-.0263903.1466416-.0263903.2606961 0 .1140546.0087968.2009533.0263903.2606962.0175935.0597428.0439838.1011555.0791708.124238.0351871.0230824.085261.0346237.1502217.0346237h.3126233v1.6904514c0 .2688429.0500739.5030621.1502217.7026575.1001477.1995955.2429259.3537049.4283346.4623283s.4012677.1629351.647577.1629351zm5.5460201-4.4603478c.1894687 0 .3200668-.019688.3917942-.0590639.0717274-.039376.1075912-.1052289.1075912-.1975588v-.6680339c0-.0923298-.0385705-.1581828-.1157113-.1975587-.0771408-.039376-.2117989-.059064-.4039744-.059064-.1894687 0-.3193901.0190091-.3897642.0570273s-.1055611.10455-.1055611.1995954v.6680339c0 .0923299.0385704.1581828.1157112.1975588.0771409.0393759.2104456.0590639.3999144.0590639zm1.6402577 4.3707335c.0649607 0 .1150346-.0108623.1502216-.032587.0351871-.0217247.0615774-.0624585.0791709-.1222013.0175935-.0597429.0263903-.1466416.0263903-.2606961 0-.1140546-.0087968-.2009533-.0263903-.2606962-.0175935-.0597428-.0439838-.1011555-.0791709-.124238-.035187-.0230824-.0852609-.0346237-.1502216-.0346237h-1.1408723v-2.6721353c0-.0923298-.0196236-.1581828-.0588707-.1975587-.0392471-.039376-.1048844-.059064-.1969121-.059064h-1.6240176c-.0649607 0-.1150346.0115412-.1502216.0346237-.0351871.0230825-.0615773.0644951-.0791709.124238-.0175935.0597429-.0263903.1466416-.0263903.2606961 0 .1140546.0087968.2009533.0263903.2606961.0175936.0597429.0439838.1004767.0791709.1222014.035187.0217246.0852609.032587.1502216.032587h.8647894v2.0937157h-1.108392c-.0649607 0-.1150346.0115413-.1502216.0346237-.0351871.0230825-.0615774.0644952-.0791709.124238-.0175935.0597429-.0263903.1466416-.0263903.2606962 0 .1140545.0087968.2009532.0263903.2606961.0175935.0597428.0439838.1004766.0791709.1222013.035187.0217247.0852609.032587.1502216.032587zm3.5159981.0896143c.3410437 0 .6326902-.0509172.8749395-.1527516.2422492-.1018345.4263046-.2471182.5521659-.4358514.1258614-.1887331.1887921-.4120899.1887921-.6700705 0-.2634117-.0609007-.4752273-.182702-.6354468s-.2909698-.2851364-.5075055-.3747507c-.1488683-.0597428-.3065333-.10455-.4729951-.1344214s-.3755541-.0597429-.6272768-.0896143c-.2544294-.0244403-.4344247-.0502383-.5399859-.0773942-.2002955-.0488805-.3004432-.130348-.3004432-.2444026 0-.0950454.0453371-.1710818.1360115-.2281091.0906743-.0570273.215859-.0855409.375554-.0855409.2706696 0 .5088589.0359815.7145678.1079445s.3884108.1934854.5481059.3645672c.0541339.0570273.1529283.0855409.2963832.0855409.1326281 0 .2280391-.019688.2862331-.0590639.058194-.039376.087291-.1052289.087291-.1975588v-.8594826c0-.0923298-.0365404-.1581828-.1096212-.1975587-.0730808-.039376-.1962355-.059064-.369464-.059064-.1705219 0-.2889398.019688-.3552539.059064-.066314.0393759-.0994711.1052289-.0994711.1975587v.0407338c-.3166834-.1982377-.6793806-.2973565-1.0880917-.2973565-.2787897 0-.5298358.0468438-.7531382.1405315s-.398561.228788-.5257757.405301-.190822.3828974-.190822.6191533c0 .4453559.186762.771226.560286.9776105.1596951.0896143.3376603.1554672.5338958.1975588.1962355.0420915.4310413.0794308.7044176.1120178.2463094.0353026.4032977.0597429.4709651.0733208.1190946.0271559.2090923.0611007.2699929.1018344.0609007.0407338.091351.0950455.091351.1629351 0 .2253935-.2165356.3380903-.649607.3380903-.2517227 0-.4831452-.039376-.6942675-.1181279-.2111223-.078752-.3843508-.2036689-.5196856-.3747507-.0595474-.0760364-.1718752-.1140546-.3369837-.1140546-.1326281 0-.2307458.0203669-.2943532.0611007-.0636073.0407338-.095411.1059078-.095411.1955221v.9083631c0 .0923298.0365404.1581828.1096212.1975587.0730808.039376.1962354.059064.369464.059064.1732285 0 .2990899-.019688.3775841-.059064.0784941-.0393759.1177412-.1052289.1177412-.1975587v-.0325871c.3220969.1928065.6712606.2892098 1.0474914.2892098zm10.7915968-.0896143c.0649607 0 .1150346-.0108623.1502216-.032587.0351871-.0217247.0615774-.0624585.0791709-.1222013.0175935-.0597429.0263903-.1466416.0263903-.2606961 0-.1140546-.0087968-.2009533-.0263903-.2606962-.0175935-.0597428-.0439838-.1011555-.0791709-.124238-.035187-.0230824-.0852609-.0346237-.1502216-.0346237h-1.1652326v-.3869708c0-.287852.0548106-.5485481.1644318-.7820884.1096212-.2335402.2551061-.4168422.4364547-.5499059.1813486-.1330636.3762307-.1995954.5846463-.1995954.1624018 0 .3193901.0420915.4709651.1262747.0433072.0217246.0839076.032587.1218013.032587.0676674 0 .1319515-.0312292.1928521-.0936877.0609007-.0624584.1157113-.1547883.1644318-.2769896s.0730808-.2281091.0730808-.3177234c0-.1412104-.0595473-.255265-.1786419-.3421637-.2030022-.1520727-.4195379-.2281091-.6496071-.2281091-.2706696 0-.5379558.1065867-.8018586.3197601-.2639029.2131734-.4973554.51664-.7003576.9103997v-.8839228c0-.0923298-.0196236-.1581828-.0588707-.1975587-.0392471-.039376-.1048844-.059064-.1969121-.059064h-1.112452c-.0649607 0-.1150346.0115412-.1502217.0346237-.035187.0230825-.0615773.0644951-.0791708.124238s-.0263903.1466416-.0263903.2606961c0 .1140546.0087968.2009533.0263903.2606961.0175935.0597429.0439838.1004767.0791708.1222014.0351871.0217246.085261.032587.1502217.032587h.4750251v2.0937157h-.5968265c-.0649607 0-.1150345.0115413-.1502216.0346237-.035187.0230825-.0615773.0644952-.0791708.124238-.0175936.0597429-.0263903.1466416-.0263903.2606962 0 .1140545.0087967.2009532.0263903.2606961.0175935.0597428.0439838.1004766.0791708.1222013.0351871.0217247.0852609.032587.1502216.032587zm3.9950833-4.3707335c.1894687 0 .3200668-.019688.3917942-.0590639.0717274-.039376.1075912-.1052289.1075912-.1975588v-.6680339c0-.0923298-.0385705-.1581828-.1157113-.1975587-.0771408-.039376-.211799-.059064-.4039744-.059064-.1894687 0-.3193901.0190091-.3897642.0570273s-.1055611.10455-.1055611.1995954v.6680339c0 .0923299.0385704.1581828.1157112.1975588.0771409.0393759.2104456.0590639.3999144.0590639zm1.6402577 4.3707335c.0649607 0 .1150346-.0108623.1502216-.032587.0351871-.0217247.0615774-.0624585.0791709-.1222013.0175935-.0597429.0263903-.1466416.0263903-.2606961 0-.1140546-.0087968-.2009533-.0263903-.2606962-.0175935-.0597428-.0439838-.1011555-.0791709-.124238-.035187-.0230824-.0852609-.0346237-.1502216-.0346237h-1.1408723v-2.6721353c0-.0923298-.0196236-.1581828-.0588707-.1975587-.0392471-.039376-.1048844-.059064-.1969121-.059064h-1.6240176c-.0649607 0-.1150346.0115412-.1502216.0346237-.0351871.0230825-.0615773.0644951-.0791709.124238-.0175935.0597429-.0263903.1466416-.0263903.2606961 0 .1140546.0087968.2009533.0263903.2606961.0175936.0597429.0439838.1004767.0791709.1222014.035187.0217246.0852609.032587.1502216.032587h.8647894v2.0937157h-1.108392c-.0649607 0-.1150346.0115413-.1502217.0346237-.035187.0230825-.0615773.0644952-.0791708.124238-.0175935.0597429-.0263903.1466416-.0263903.2606962 0 .1140545.0087968.2009532.0263903.2606961.0175935.0597428.0439838.1004766.0791708.1222013.0351871.0217247.085261.032587.1502217.032587zm3.5159981.0896143c.3410437 0 .6326902-.0509172.8749394-.1527516.2422493-.1018345.4263047-.2471182.552166-.4358514.1258614-.1887331.1887921-.4120899.1887921-.6700705 0-.2634117-.0609007-.4752273-.182702-.6354468s-.2909698-.2851364-.5075055-.3747507c-.1488683-.0597428-.3065333-.10455-.4729951-.1344214s-.3755541-.0597429-.6272768-.0896143c-.2544294-.0244403-.4344247-.0502383-.5399859-.0773942-.2002955-.0488805-.3004432-.130348-.3004432-.2444026 0-.0950454.0453371-.1710818.1360115-.2281091.0906743-.0570273.215859-.0855409.375554-.0855409.2706696 0 .5088589.0359815.7145678.1079445s.3884108.1934854.5481059.3645672c.0541339.0570273.1529283.0855409.2963832.0855409.1326281 0 .2280391-.019688.2862331-.0590639.058194-.039376.0872909-.1052289.0872909-.1975588v-.8594826c0-.0923298-.0365403-.1581828-.1096211-.1975587-.0730808-.039376-.1962355-.059064-.369464-.059064-.1705219 0-.2889398.019688-.3552539.059064-.066314.0393759-.0994711.1052289-.0994711.1975587v.0407338c-.3166834-.1982377-.6793807-.2973565-1.0880917-.2973565-.2787897 0-.5298358.0468438-.7531382.1405315s-.398561.228788-.5257757.405301-.1908221.3828974-.1908221.6191533c0 .4453559.1867621.771226.5602861.9776105.1596951.0896143.3376603.1554672.5338958.1975588.1962354.0420915.4310413.0794308.7044176.1120178.2463094.0353026.4032977.0597429.4709651.0733208.1190946.0271559.2090923.0611007.2699929.1018344.0609007.0407338.091351.0950455.091351.1629351 0 .2253935-.2165356.3380903-.649607.3380903-.2517227 0-.4831452-.039376-.6942675-.1181279-.2111223-.078752-.3843508-.2036689-.5196856-.3747507-.0595474-.0760364-.1718752-.1140546-.3369837-.1140546-.1326281 0-.2307458.0203669-.2943532.0611007-.0636073.0407338-.095411.1059078-.095411.1955221v.9083631c0 .0923298.0365404.1581828.1096212.1975587.0730808.039376.1962354.059064.369464.059064.1732285 0 .2990899-.019688.3775841-.059064.0784941-.0393759.1177412-.1052289.1177412-.1975587v-.0325871c.3220969.1928065.6712606.2892098 1.0474914.2892098zm4.254926 0c.5359258 0 .9825307-.3122922 1.3398145-.9368767v.5906397c0 .0923298.0196236.1581828.0588707.1975587.0392471.039376.1048844.059064.1969121.059064h.9094499c.0649607 0 .1150345-.0115412.1502216-.0346237.035187-.0230825.0615773-.0644951.0791708-.124238.0175936-.0597429.0263903-.1466416.0263903-.2606961 0-.1140546-.0087967-.2009533-.0263903-.2606961-.0175935-.0597429-.0439838-.1004767-.0791708-.1222014-.0351871-.0217246-.0852609-.032587-.1502216-.032587h-.3126234v-2.6721353c0-.0923298-.0196236-.1581828-.0588707-.1975587-.0392471-.039376-.1048844-.059064-.1969121-.059064h-1.1936529c-.0649607 0-.1150346.0108623-.1502216.032587-.0351871.0217247-.0615774.0624585-.0791709.1222013-.0175935.0597429-.0263903.1466416-.0263903.2606961 0 .1140546.0087968.2009533.0263903.2606962.0175935.0597428.0439838.1011555.0791709.124238.035187.0230824.0852609.0346237.1502216.0346237h.4344247v.6639604c0 .2498338-.0426305.4847319-.1278914.7046942-.0852609.2199624-.1982655.3957965-.3390137.5275023-.1407482.1317059-.2896164.1975588-.4466048.1975588-.1705219 0-.2923232-.0543117-.365404-.162935-.0730808-.1086234-.1096211-.2688429-.1096211-.4806585v-2.0285418c0-.0923298-.0196236-.1581828-.0588707-.1975587-.0392471-.039376-.1048845-.059064-.1969121-.059064h-1.0718516c-.0649607 0-.1150346.0108623-.1502216.032587-.0351871.0217247-.0615774.0624585-.0791709.1222013-.0175935.0597429-.0263903.1466416-.0263903.2606961 0 .1140546.0087968.2009533.0263903.2606962.0175935.0597428.0439838.1011555.0791709.124238.035187.0230824.0852609.0346237.1502216.0346237h.3126234v1.6904514c0 .2688429.0500738.5030621.1502216.7026575.1001477.1995955.242926.3537049.4283346.4623283.1854087.1086234.4012677.1629351.647577.1629351zm5.7165419 0c.3410437 0 .6326902-.0509172.8749395-.1527516.2422493-.1018345.4263046-.2471182.552166-.4358514.1258613-.1887331.188792-.4120899.188792-.6700705 0-.2634117-.0609006-.4752273-.182702-.6354468-.1218013-.1602195-.2909698-.2851364-.5075055-.3747507-.1488682-.0597428-.3065333-.10455-.4729951-.1344214s-.375554-.0597429-.6272768-.0896143c-.2544294-.0244403-.4344247-.0502383-.5399858-.0773942-.2002955-.0488805-.3004433-.130348-.3004433-.2444026 0-.0950454.0453372-.1710818.1360115-.2281091s.215859-.0855409.3755541-.0855409c.2706696 0 .5088588.0359815.7145677.1079445s.3884109.1934854.5481059.3645672c.054134.0570273.1529284.0855409.2963833.0855409.1326281 0 .2280391-.019688.286233-.0590639.058194-.039376.087291-.1052289.087291-.1975588v-.8594826c0-.0923298-.0365404-.1581828-.1096212-.1975587-.0730808-.039376-.1962355-.059064-.369464-.059064-.1705218 0-.2889398.019688-.3552538.059064-.0663141.0393759-.0994711.1052289-.0994711.1975587v.0407338c-.3166834-.1982377-.6793807-.2973565-1.0880918-.2973565-.2787897 0-.5298357.0468438-.7531381.1405315-.2233025.0936877-.398561.228788-.5257757.405301-.1272148.176513-.1908221.3828974-.1908221.6191533 0 .4453559.186762.771226.5602861.9776105.159695.0896143.3376603.1554672.5338957.1975588.1962355.0420915.4310414.0794308.7044177.1120178.2463093.0353026.4032977.0597429.4709651.0733208.1190946.0271559.2090922.0611007.2699929.1018344.0609006.0407338.091351.0950455.091351.1629351 0 .2253935-.2165357.3380903-.6496071.3380903-.2517227 0-.4831452-.039376-.6942675-.1181279-.2111223-.078752-.3843508-.2036689-.5196856-.3747507-.0595473-.0760364-.1718752-.1140546-.3369836-.1140546-.1326281 0-.2307459.0203669-.2943532.0611007-.0636074.0407338-.0954111.1059078-.0954111.1955221v.9083631c0 .0923298.0365404.1581828.1096212.1975587.0730808.039376.1962355.059064.369464.059064.1732286 0 .2990899-.019688.3775841-.059064.0784942-.0393759.1177413-.1052289.1177413-.1975587v-.0325871c.3220968.1928065.6712606.2892098 1.0474913.2892098zm9.7522251 0c.27067 0 .546753-.0257981.828249-.0773942.281497-.0515961.55758-.1222013.828249-.2118156.070375-.0244402.121125-.0563483.152252-.0957243s.046691-.0943666.046691-.1649718-.013534-.1561461-.040601-.2566227c-.035187-.1303481-.074434-.222678-.117741-.2769897s-.094734-.0814675-.154282-.0814675c-.03248 0-.064961.0054312-.097441.0162935-.489912.1493572-.944637.2240357-1.364175.2240357-.2598424 0-.4743481-.0577061-.6435166-.1731185-.1691685-.1154123-.2794663-.2817419-.3308936-.4989887h2.6065482c.092028 0 .157665-.0190091.196912-.0570272.039247-.0380182.058871-.1031923.058871-.1955221 0-.4073377-.073758-.7691894-.221273-1.085555s-.36608-.5634838-.655697-.7413546c-.289616-.1778708-.640133-.2668062-1.051551-.2668062-.4087112 0-.765995.0841831-1.0718517.2525494-.3058566.1683662-.5399858.4019065-.7023876.7006208-.1624017.2987143-.2436026.6381624-.2436026 1.0183442 0 .3828975.0778175.7230245.2334525 1.020381s.3823208.5302179.6800574.6985841c.2977365.1683663.6523137.2525494 1.063731.2525494zm.90945-2.3910723h-1.786419c.1163879-.4182.4222446-.6273.91757-.6273.232776 0 .424275.0549906.574496.1649717.150222.1099812.24834.2640906.294353.4623283zm3.889522 3.9715426c.633367 0 1.109069-.1459627 1.427106-.4378881.318037-.2919253.477055-.7040153.477055-1.2362699v-2.9246846h.353224c.064961 0 .115034-.0108624.150222-.032587.035187-.0217247.061577-.0624585.07917-.1222014.017594-.0597428.026391-.1466415.026391-.2606961 0-.1140545-.008797-.2009532-.026391-.2606961-.017593-.0597429-.043983-.1011555-.07917-.124238-.035188-.0230825-.085261-.0346237-.150222-.0346237h-.95005c-.092028 0-.157665.019688-.196913.059064-.039247.0393759-.05887.1052289-.05887.1975587v.2851364c-.140748-.2036688-.316684-.3598149-.527806-.4684383s-.445251-.1629351-.702387-.1629351c-.349164 0-.656374.0821464-.92163.2464393-.265257.1642929-.469612.3910442-.613067.680254-.143455.2892097-.215182.6171166-.215182.9837205s.071727.6945108.215182.9837205c.143455.2892098.34781.5159611.613067.680254.265256.1642929.572466.2464393.92163.2464393.211122 0 .407357-.0407338.588706-.1222013.181349-.0814676.341044-.1968799.479085-.3462371v.4154845c0 .2797052-.073081.4881263-.219242.6252634-.146162.137137-.382998.2057055-.710508.2057055-.313977 0-.729455-.0801098-1.246433-.2403292-.029774-.0108624-.062254-.0162936-.097442-.0162936-.067667 0-.126538.0285137-.176611.085541-.050074.0570272-.095411.1493571-.136012.2769896-.035187.1249169-.05278.2199624-.05278.2851364 0 .1466416.06496.2403292.194882.281063.251722.078752.515625.1405315.791708.1853386.276083.0448072.530513.0672108.763288.0672108zm-.01624-2.6273282c-.251722 0-.452018-.0862198-.600886-.2586594-.148869-.1724396-.223303-.4148056-.223303-.7270978s.074434-.5546582.223303-.7270978c.148868-.1724396.349164-.2586594.600886-.2586594.173229 0 .330894.0373393.472995.1120178.142102.0746786.25443.1860176.336984.3340169.082554.1479994.123831.3279069.123831.5397225s-.041277.3917231-.123831.5397224c-.082554.1479994-.194882.2593384-.336984.334017-.142101.0746785-.299766.1120178-.472995.1120178zm5.188736 1.0468579c.27067 0 .546753-.0257981.828249-.0773942.281497-.0515961.55758-.1222013.828249-.2118156.070374-.0244402.121125-.0563483.152252-.0957243s.046691-.0943666.046691-.1649718-.013534-.1561461-.040601-.2566227c-.035187-.1303481-.074434-.222678-.117741-.2769897s-.094735-.0814675-.154282-.0814675c-.03248 0-.064961.0054312-.097441.0162935-.489912.1493572-.944637.2240357-1.364175.2240357-.259842 0-.474348-.0577061-.643517-.1731185-.169168-.1154123-.279466-.2817419-.330893-.4989887h2.606548c.092028 0 .157665-.0190091.196912-.0570272.039247-.0380182.058871-.1031923.058871-.1955221 0-.4073377-.073758-.7691894-.221273-1.085555s-.36608-.5634838-.655697-.7413546c-.289616-.1778708-.640133-.2668062-1.051551-.2668062-.408711 0-.765995.0841831-1.071852.2525494-.305856.1683662-.539986.4019065-.702387.7006208-.162402.2987143-.243603.6381624-.243603 1.0183442 0 .3828975.077818.7230245.233453 1.020381s.38232.5302179.680057.6985841c.297736.1683663.652314.2525494 1.063731.2525494zm.90945-2.3910723h-1.786419c.116388-.4182.422245-.6273.91757-.6273.232776 0 .424274.0549906.574496.1649717.150222.1099812.248339.2640906.294353.4623283zm4.449808 2.3910723c.408712 0 .891857-.1412104 1.449436-.4236312.056841-.0298714.099471-.0644951.127892-.1038711.02842-.039376.04263-.0889354.04263-.1486783 0-.0760363-.02436-.1751552-.073081-.2973565-.043307-.1086234-.089321-.1866964-.138041-.2342192-.048721-.0475227-.101501-.0712841-.158342-.0712841-.035187 0-.082554.0122202-.142102.0366604-.221949.1004767-.416154.1785497-.582616.2342192s-.311947.0835042-.436455.0835042c-.349163 0-.523745-.2253935-.523745-.6761805v-1.1323988h1.506276c.094734 0 .161048-.0305504.198942-.091651.037894-.0611007.056841-.1758341.056841-.3442004 0-.1683662-.018947-.2837786-.056841-.346237-.037894-.0624585-.104208-.0936877-.198942-.0936877h-1.506276v-1.1486923c0-.065174-.013534-.1154123-.040601-.1507149s-.07511-.0617796-.144131-.0794309-.167139-.0264769-.294353-.0264769c-.192176 0-.329541.0196879-.412095.0590639s-.123831.1052289-.123831.1975588v1.1486923h-.783589c-.094734 0-.161048.0312292-.198942.0936877-.037894.0624584-.05684.1778708-.05684.346237 0 .1683663.018946.2830997.05684.3442004.037894.0611006.104208.091651.198942.091651h.783589v1.1853527c0 .5050987.123831.8893539.371494 1.1527656.247662.2634117.606976.3951176 1.077941.3951176zm-105.58550257 11.6791865c.53592577 0 .98253067-.3122923 1.33981447-.9368768v.5906397c0 .0923299.0196236.1581828.0588707.1975588s.1048844.059064.1969121.059064h.9094498c.0649607 0 .1150346-.0115413.1502217-.0346237.035187-.0230825.0615773-.0644952.0791708-.124238.0175936-.0597429.0263903-.1466416.0263903-.2606962 0-.1140545-.0087967-.2009532-.0263903-.2606961-.0175935-.0597429-.0439838-.1004766-.0791708-.1222013-.0351871-.0217247-.085261-.032587-.1502217-.032587h-.3126233v-2.6721353c0-.0923299-.0196236-.1581828-.0588707-.1975588s-.1048844-.059064-.1969121-.059064h-1.1936529c-.0649607 0-.1150346.0108624-.1502217.0325871-.035187.0217246-.0615773.0624584-.0791708.1222013-.0175935.0597428-.0263903.1466415-.0263903.2606961 0 .1140545.0087968.2009533.0263903.2606961.0175935.0597429.0439838.1011555.0791708.124238.0351871.0230825.085261.0346237.1502217.0346237h.4344247v.6639605c0 .2498338-.0426305.4847318-.1278914.7046942-.0852609.2199623-.1982655.3957964-.3390137.5275023s-.2896164.1975588-.4466048.1975588c-.17052186 0-.29232318-.0543117-.36540397-.1629351s-.10962119-.2688429-.10962119-.4806585v-2.0285417c0-.0923299-.01962354-.1581828-.05887064-.1975588-.03924709-.039376-.10488446-.059064-.19691213-.059064h-1.0718516c-.0649607 0-.11503458.0108624-.15022163.0325871-.03518704.0217246-.06157733.0624584-.07917085.1222013-.01759353.0597428-.02639029.1466415-.02639029.2606961 0 .1140545.00879676.2009533.02639029.2606961.01759352.0597429.04398381.1011555.07917085.124238.03518705.0230825.08526093.0346237.15022163.0346237h.31262338v1.6904515c0 .2688428.05007388.503062.15022163.7026575s.24292596.3537049.42833464.4623283c.18540867.1086234.40126767.1629351.64757701.1629351zm6.53667077-.0896143c.0649607 0 .1150346-.0108624.1502216-.0325871.0351871-.0217246.0615774-.0624584.0791709-.1222013.0175935-.0597428.0263903-.1466415.0263903-.2606961 0-.1140545-.0087968-.2009533-.0263903-.2606961-.0175935-.0597429-.0439838-.1011555-.0791709-.124238-.035187-.0230825-.0852609-.0346237-.1502216-.0346237h-1.1652326v-.3869708c0-.287852.0548106-.5485481.1644318-.7820884.1096211-.2335403.2551061-.4168423.4364547-.5499059s.3762307-.1995955.5846463-.1995955c.1624018 0 .3193901.0420916.4709651.1262747.0433071.0217247.0839076.032587.1218013.032587.0676674 0 .1319515-.0312292.1928521-.0936876.0609007-.0624585.1157113-.1547884.1644318-.2769897s.0730808-.2281091.0730808-.3177234c0-.1412104-.0595473-.2552649-.1786419-.3421636-.2030022-.1520728-.4195379-.2281092-.6496071-.2281092-.2706696 0-.5379558.1065867-.8018587.3197601-.2639028.2131734-.4973553.51664-.7003575.9103998v-.8839228c0-.0923299-.0196236-.1581828-.0588707-.1975588s-.1048844-.059064-.1969121-.059064h-1.1124521c-.0649607 0-.1150345.0115413-.1502216.0346237-.035187.0230825-.0615773.0644952-.0791708.124238-.0175936.0597429-.0263903.1466416-.0263903.2606962 0 .1140545.0087967.2009532.0263903.2606961.0175935.0597429.0439838.1004766.0791708.1222013.0351871.0217247.0852609.032587.1502216.032587h.4750252v2.0937158h-.5968265c-.0649607 0-.1150346.0115412-.1502216.0346237s-.0615773.0644951-.0791709.124238c-.0175935.0597428-.0263902.1466416-.0263902.2606961 0 .1140546.0087967.2009533.0263902.2606961.0175936.0597429.0439839.1004767.0791709.1222013.035187.0217247.0852609.0325871.1502216.0325871zm3.5241181 0c.0649607 0 .1150346-.0108624.1502217-.0325871.035187-.0217246.0615773-.0624584.0791708-.1222013.0175935-.0597428.0263903-.1466415.0263903-.2606961 0-.1140545-.0087968-.2009533-.0263903-.2606961-.0175935-.0597429-.0439838-.1011555-.0791708-.124238-.0351871-.0230825-.085261-.0346237-.1502217-.0346237h-.190822v-.6639605c0-.2498338.0426304-.4847318.1278914-.7046942.0852609-.2199623.1982654-.3957964.3390136-.5275023s.2896165-.1975588.4466049-.1975588c.1705218 0 .2923231.0543117.3654039.1629351s.1096212.2688429.1096212.4806585v1.4501222h-.1908221c-.0649607 0-.1150345.0115412-.1502216.0346237-.035187.0230825-.0615773.0644951-.0791708.124238-.0175936.0597428-.0263903.1466416-.0263903.2606961 0 .1140546.0087967.2009533.0263903.2606961.0175935.0597429.0439838.1004767.0791708.1222013.0351871.0217247.0852609.0325871.1502216.0325871h1.5184565c.0649607 0 .1150346-.0108624.1502216-.0325871.0351871-.0217246.0615773-.0624584.0791709-.1222013.0175935-.0597428.0263902-.1466415.0263902-.2606961 0-.1140545-.0087967-.2009533-.0263902-.2606961-.0175936-.0597429-.0439838-.1011555-.0791709-.124238-.035187-.0230825-.0852609-.0346237-.1502216-.0346237h-.3126234v-1.6904515c0-.2688428-.0500739-.503062-.1502216-.7026575-.1001478-.1995955-.242926-.3537049-.4283347-.4623283-.1854086-.1086234-.4012676-.1629351-.647577-.1629351-.5359258 0-.9825306.3122923-1.3398145.9368767v-.5906396c0-.0923299-.0196235-.1581828-.0588706-.1975588s-.1048845-.059064-.1969122-.059064h-.9906507c-.0649607 0-.1150346.0115413-.1502216.0346237-.035187.0230825-.0615773.0644952-.0791709.124238-.0175935.0597429-.0263902.1466416-.0263902.2606962 0 .1140545.0087967.2009532.0263902.2606961.0175936.0597429.0439839.1004766.0791709.1222013s.0852609.032587.1502216.032587h.3938243v2.0937158h-.3126234c-.0649607 0-.1150346.0115412-.1502216.0346237-.0351871.0230825-.0615774.0644951-.0791709.124238-.0175935.0597428-.0263903.1466416-.0263903.2606961 0 .1140546.0087968.2009533.0263903.2606961.0175935.0597429.0439838.1004767.0791709.1222013.035187.0217247.0852609.0325871.1502216.0325871zm4.8233323.0896143c.2517227 0 .4966787-.0454861.7348679-.1364582.2381893-.0909721.4641984-.2192834.6780274-.3849341.0676674.1493572.1657851.2586594.2943531.3279068.1285681.0692475.2767597.1038712.4445749.1038712h.4547249c.0649607 0 .1150346-.0108624.1502216-.0325871.035187-.0217246.0615773-.0624584.0791709-.1222013.0175935-.0597428.0263902-.1466415.0263902-.2606961 0-.1140545-.0087967-.2009533-.0263902-.2606961-.0175936-.0597429-.0439839-.1011555-.0791709-.124238s-.0852609-.0346237-.1502216-.0346237h-.1258614c-.0866143 0-.1529283-.0305503-.1989421-.091651-.0460139-.0611007-.0690208-.1459627-.0690208-.2545861v-1.1772059c0-.4806585-.1326281-.849978-.3978843-1.1079585-.2652562-.2579806-.6956209-.3869709-1.291094-.3869709-.2381892 0-.4926186.0217247-.7632882.0651741-.2706696.0434493-.5264524.1086234-.7673483.1955221-.1245081.0461649-.1867621.1384948-.1867621.2769896 0 .0760364.0203003.1737974.0609007.2932831.0433071.1194858.091351.2043478.1441316.2545861.0527805.0502383.1130045.0753575.1806719.0753575.0324804 0 .0717275-.006789.1177413-.0203669.1921754-.065174.3863808-.117449.5826163-.156825s.3742007-.059064.5338958-.059064c.2869097 0 .4872052.0434494.6008865.1303481.1136812.0868987.1705218.2213201.1705218.4032643v.1181279c-.4060044-.0814675-.7890019-.1222013-1.1489924-.1222013-.4817919 0-.8566693.10455-1.1246322.31365-.2679629.2091001-.4019443.503741-.4019443.8839229 0 .2634117.0588706.4921997.1766119.686364.1177412.1941643.2875864.3435214.5095355.4480714s.4858519.1568251.7917086.1568251zm.1299214-.8594826c-.1813487 0-.3200668-.0332659-.4161545-.0997977s-.1441316-.163614-.1441316-.2912465c0-.130348.0493972-.2294669.1481916-.2973565s.242926-.1018344.4323947-.1018344c.3410437 0 .6902075.0366604 1.0474913.1099812v.2606961c-.159695.130348-.3308936.2328614-.5135955.3075399-.182702.0746786-.367434.1120179-.554196.1120179zm9.1066786.7698683c.0920276 0 .157665-.019688.1969121-.059064s.0588706-.1052289.0588706-.1975588v-1.3849482c0-.3801818.0372171-.6693916.1116512-.8676293.0744342-.1982376.1752586-.2973565.3024733-.2973565.0730808 0 .126538.0339448.1603717.1018345.0338337.0678896.0507506.1737974.0507506.3177234v2.1303761c0 .0923299.0196235.1581828.0588706.1975588s.1048845.059064.1969122.059064h.5034454c.0920277 0 .157665-.019688.1969121-.059064s.0588707-.1052289.0588707-.1975588v-1.3849482c0-.3801818.037217-.6693916.1116512-.8676293.0744341-.1982376.1752585-.2973565.3024733-.2973565.0730808 0 .126538.0339448.1603717.1018345.0338337.0678896.0507505.1737974.0507505.3177234v2.1303761c0 .0923299.0196236.1581828.0588707.1975588s.1048845.059064.1969121.059064h.5034455c.0920276 0 .157665-.019688.1969121-.059064s.0588706-.1052289.0588706-.1975588v-2.3625586c0-.4154845-.0717274-.7250611-.2151823-.92873-.1434549-.2036688-.3396903-.3055033-.5887064-.3055033-.1921754 0-.3708173.0699263-.5359258.209779-.1651084.1398526-.3099167.3455581-.4344247.6171166-.1163879-.5512637-.3748774-.8268956-.7754684-.8268956-.2057089 0-.3945009.078752-.5663761.2362559s-.3214201.3896864-.4486349.6965475v-.5865663c0-.0923299-.0196235-.1581828-.0588706-.1975588s-.1048845-.059064-.1969121-.059064h-.7064477c-.0649607 0-.1150346.0115413-.1502216.0346237-.035187.0230825-.0615773.0644952-.0791709.124238-.0175935.0597429-.0263902.1466416-.0263902.2606962 0 .1140545.0087967.2009532.0263902.2606961.0175936.0597429.0439839.1004766.0791709.1222013s.0852609.032587.1502216.032587h.2314225v2.6721353c0 .0923299.0196236.1581828.0588707.1975588s.1048844.059064.1969121.059064zm6.289008.0896143c.4114178 0 .7714084-.0841832 1.0799717-.2525494.3085634-.1683663.5460759-.4019065.7125377-.7006209.1664618-.2987143.2496927-.6381624.2496927-1.0183442 0-.3801819-.0832309-.7196299-.2496927-1.0183442-.1664618-.2987144-.4039743-.5322546-.7125377-.7006209-.3085633-.1683662-.6685539-.2525494-1.0799717-.2525494s-.7714083.0841832-1.0799717.2525494c-.3085633.1683663-.5460759.4019065-.7125377.7006209-.1664618.2987143-.2496927.6381623-.2496927 1.0183442 0 .3801818.0832309.7196299.2496927 1.0183442.1664618.2987144.4039744.5322546.7125377.7006209.3085634.1683662.6685539.2525494 1.0799717.2525494zm0-.9246566c-.1948821 0-.3640506-.0427705-.5075055-.1283114-.1434548-.0855409-.2537527-.2070633-.3308935-.3645672-.0771409-.1575039-.1157113-.3421637-.1157113-.5539793s.0385704-.3964754.1157113-.5539793c.0771408-.1575039.1874387-.2790263.3308935-.3645672.1434549-.0855409.3126234-.1283114.5075055-.1283114s.3640506.0427705.5075055.1283114.2537528.2070633.3308936.3645672.1157113.3421637.1157113.5539793-.0385705.3964754-.1157113.5539793-.1874387.2790263-.3308936.3645672-.3126234.1283114-.5075055.1283114zm6.650352.8350423c.0649607 0 .1150346-.0108624.1502217-.0325871.035187-.0217246.0615773-.0624584.0791708-.1222013.0175935-.0597428.0263903-.1466415.0263903-.2606961 0-.1140545-.0087968-.2009533-.0263903-.2606961-.0175935-.0597429-.0439838-.1011555-.0791708-.124238-.0351871-.0230825-.085261-.0346237-.1502217-.0346237h-1.1408723v-4.2526056c0-.0923299-.0196236-.1581828-.0588707-.1975588-.0392471-.0393759-.1048844-.0590639-.1969121-.0590639h-1.7052185c-.0649607 0-.1150345.0115412-.1502216.0346237-.035187.0230824-.0615773.0644951-.0791708.124238-.0175936.0597428-.0263903.1466415-.0263903.2606961s.0087967.2009533.0263903.2606961c.0175935.0597429.0439838.1004767.0791708.1222013.0351871.0217247.0852609.0325871.1502216.0325871h.9459903v3.674186h-1.108392c-.0649607 0-.1150346.0115412-.1502216.0346237-.0351871.0230825-.0615774.0644951-.0791709.124238-.0175935.0597428-.0263903.1466416-.0263903.2606961 0 .1140546.0087968.2009533.0263903.2606961.0175935.0597429.0439838.1004767.0791709.1222013.035187.0217247.0852609.0325871.1502216.0325871zm4.985734 0c.0649607 0 .1150346-.0108624.1502216-.0325871.0351871-.0217246.0615774-.0624584.0791709-.1222013.0175935-.0597428.0263903-.1466415.0263903-.2606961 0-.1140545-.0087968-.2009533-.0263903-.2606961-.0175935-.0597429-.0439838-.1011555-.0791709-.124238-.035187-.0230825-.0852609-.0346237-.1502216-.0346237h-1.1408723v-4.2526056c0-.0923299-.0196236-.1581828-.0588707-.1975588-.0392471-.0393759-.1048845-.0590639-.1969121-.0590639h-1.7052185c-.0649607 0-.1150346.0115412-.1502216.0346237-.0351871.0230824-.0615773.0644951-.0791709.124238-.0175935.0597428-.0263902.1466415-.0263902.2606961s.0087967.2009533.0263902.2606961c.0175936.0597429.0439838.1004767.0791709.1222013.035187.0217247.0852609.0325871.1502216.0325871h.9459903v3.674186h-1.108392c-.0649607 0-.1150346.0115412-.1502217.0346237-.035187.0230825-.0615773.0644951-.0791708.124238-.0175935.0597428-.0263903.1466416-.0263903.2606961 0 .1140546.0087968.2009533.0263903.2606961.0175935.0597429.0439838.1004767.0791708.1222013.0351871.0217247.085261.0325871.1502217.0325871zm3.3860767-4.3707335c.1894687 0 .3200668-.019688.3917942-.059064s.1075912-.1052289.1075912-.1975588v-.6680338c0-.0923299-.0385705-.1581828-.1157113-.1975588s-.2117989-.059064-.4039744-.059064c-.1894687 0-.3193901.0190091-.3897642.0570273s-.1055611.10455-.1055611.1995955v.6680338c0 .0923299.0385704.1581828.1157112.1975588.0771409.039376.2104456.059064.3999144.059064zm1.6402577 4.3707335c.0649607 0 .1150346-.0108624.1502216-.0325871.0351871-.0217246.0615774-.0624584.0791709-.1222013.0175935-.0597428.0263903-.1466415.0263903-.2606961 0-.1140545-.0087968-.2009533-.0263903-.2606961-.0175935-.0597429-.0439838-.1011555-.0791709-.124238-.035187-.0230825-.0852609-.0346237-.1502216-.0346237h-1.1408723v-2.6721353c0-.0923299-.0196236-.1581828-.0588707-.1975588s-.1048844-.059064-.1969121-.059064h-1.6240176c-.0649607 0-.1150346.0115413-.1502216.0346237-.0351871.0230825-.0615773.0644952-.0791709.124238-.0175935.0597429-.0263903.1466416-.0263903.2606962 0 .1140545.0087968.2009532.0263903.2606961.0175936.0597429.0439838.1004766.0791709.1222013.035187.0217247.0852609.032587.1502216.032587h.8647894v2.0937158h-1.108392c-.0649607 0-.1150346.0115412-.1502216.0346237-.0351871.0230825-.0615774.0644951-.0791709.124238-.0175935.0597428-.0263903.1466416-.0263903.2606961 0 .1140546.0087968.2009533.0263903.2606961.0175935.0597429.0439838.1004767.0791709.1222013.035187.0217247.0852609.0325871.1502216.0325871zm3.5159981.0896143c.3410437 0 .6326902-.0509173.8749395-.1527517.2422492-.1018344.4263046-.2471182.5521659-.4358513.1258614-.1887332.1887921-.41209.1887921-.6700705 0-.2634117-.0609007-.4752273-.182702-.6354468s-.2909698-.2851364-.5075055-.3747507c-.1488683-.0597429-.3065333-.10455-.4729951-.1344215-.1664618-.0298714-.3755541-.0597428-.6272768-.0896143-.2544294-.0244402-.4344247-.0502383-.5399859-.0773941-.2002955-.0488805-.3004432-.1303481-.3004432-.2444026 0-.0950455.0453371-.1710819.1360115-.2281091.0906743-.0570273.215859-.085541.375554-.085541.2706696 0 .5088589.0359815.7145678.1079445s.3884108.1934854.5481059.3645673c.0541339.0570272.1529283.0855409.2963832.0855409.1326281 0 .2280391-.019688.2862331-.059064s.087291-.1052289.087291-.1975588v-.8594825c0-.0923299-.0365404-.1581828-.1096212-.1975588s-.1962355-.059064-.369464-.059064c-.1705219 0-.2889398.019688-.3552539.059064-.066314.039376-.0994711.1052289-.0994711.1975588v.0407338c-.3166834-.1982377-.6793806-.2973566-1.0880917-.2973566-.2787897 0-.5298358.0468439-.7531382.1405316-.2233024.0936876-.398561.228788-.5257757.405301s-.190822.3828974-.190822.6191533c0 .4453558.186762.771226.560286.9776104.1596951.0896143.3376603.1554673.5338958.1975588.1962355.0420916.4310413.0794309.7044176.1120179.2463094.0353026.4032977.0597428.4709651.0733208.1190946.0271558.2090923.0611006.2699929.1018344.0609007.0407338.091351.0950455.091351.1629351 0 .2253935-.2165356.3380903-.649607.3380903-.2517227 0-.4831452-.039376-.6942675-.118128-.2111223-.0787519-.3843508-.2036688-.5196856-.3747507-.0595474-.0760363-.1718752-.1140545-.3369837-.1140545-.1326281 0-.2307458.0203669-.2943532.0611006-.0636073.0407338-.095411.1059078-.095411.1955221v.9083631c0 .0923299.0365404.1581828.1096212.1975588s.1962354.059064.369464.059064c.1732285 0 .2990899-.019688.3775841-.059064.0784941-.039376.1177412-.1052289.1177412-.1975588v-.032587c.3220969.1928065.6712606.2892098 1.0474914.2892098zm9.7359854 0c.4114178 0 .7714083-.0841832 1.0799717-.2525494.3085633-.1683663.5460759-.4019065.7125377-.7006209.1664618-.2987143.2496927-.6381624.2496927-1.0183442 0-.3801819-.0832309-.7196299-.2496927-1.0183442-.1664618-.2987144-.4039744-.5322546-.7125377-.7006209-.3085634-.1683662-.6685539-.2525494-1.0799717-.2525494s-.7714084.0841832-1.0799717.2525494c-.3085634.1683663-.5460759.4019065-.7125377.7006209-.1664618.2987143-.2496927.6381623-.2496927 1.0183442 0 .3801818.0832309.7196299.2496927 1.0183442.1664618.2987144.4039743.5322546.7125377.7006209.3085633.1683662.6685539.2525494 1.0799717.2525494zm0-.9246566c-.1948821 0-.3640506-.0427705-.5075055-.1283114s-.2537528-.2070633-.3308936-.3645672-.1157113-.3421637-.1157113-.5539793.0385705-.3964754.1157113-.5539793.1874387-.2790263.3308936-.3645672.3126234-.1283114.5075055-.1283114.3640506.0427705.5075055.1283114.2537527.2070633.3308936.3645672c.0771408.1575039.1157112.3421637.1157112.5539793s-.0385704.3964754-.1157112.5539793c-.0771409.1575039-.1874387.2790263-.3308936.3645672s-.3126234.1283114-.5075055.1283114zm6.0413454.8350423c.0649607 0 .1150346-.0108624.1502216-.0325871.0351871-.0217246.0615773-.0624584.0791709-.1222013.0175935-.0597428.0263902-.1466415.0263902-.2606961 0-.1140545-.0087967-.2009533-.0263902-.2606961-.0175936-.0597429-.0439838-.1011555-.0791709-.124238-.035187-.0230825-.0852609-.0346237-.1502216-.0346237h-1.1652326v-.3869708c0-.287852.0548106-.5485481.1644317-.7820884.1096212-.2335403.2551061-.4168423.4364548-.5499059.1813486-.1330636.3762307-.1995955.5846463-.1995955.1624018 0 .3193901.0420916.4709651.1262747.0433071.0217247.0839076.032587.1218013.032587.0676674 0 .1319514-.0312292.1928521-.0936876.0609007-.0624585.1157113-.1547884.1644318-.2769897s.0730808-.2281091.0730808-.3177234c0-.1412104-.0595473-.2552649-.178642-.3421636-.2030022-.1520728-.4195378-.2281092-.649607-.2281092-.2706696 0-.5379558.1065867-.8018587.3197601-.2639028.2131734-.4973554.51664-.7003576.9103998v-.8839228c0-.0923299-.0196235-.1581828-.0588706-.1975588s-.1048845-.059064-.1969121-.059064h-1.1124521c-.0649607 0-.1150345.0115413-.1502216.0346237-.035187.0230825-.0615773.0644952-.0791708.124238-.0175936.0597429-.0263903.1466416-.0263903.2606962 0 .1140545.0087967.2009532.0263903.2606961.0175935.0597429.0439838.1004766.0791708.1222013.0351871.0217247.0852609.032587.1502216.032587h.4750252v2.0937158h-.5968265c-.0649607 0-.1150346.0115412-.1502216.0346237-.0351871.0230825-.0615773.0644951-.0791709.124238-.0175935.0597428-.0263903.1466416-.0263903.2606961 0 .1140546.0087968.2009533.0263903.2606961.0175936.0597429.0439838.1004767.0791709.1222013.035187.0217247.0852609.0325871.1502216.0325871zm3.5241181 0c.0649607 0 .1150346-.0108624.1502217-.0325871.035187-.0217246.0615773-.0624584.0791708-.1222013.0175935-.0597428.0263903-.1466415.0263903-.2606961 0-.1140545-.0087968-.2009533-.0263903-.2606961-.0175935-.0597429-.0439838-.1011555-.0791708-.124238-.0351871-.0230825-.085261-.0346237-.1502217-.0346237h-.190822v-.6639605c0-.2498338.0426304-.4847318.1278913-.7046942.085261-.2199623.1982655-.3957964.3390137-.5275023s.2896165-.1975588.4466049-.1975588c.1705218 0 .2923231.0543117.3654039.1629351s.1096212.2688429.1096212.4806585v1.4501222h-.1908221c-.0649607 0-.1150345.0115412-.1502216.0346237-.035187.0230825-.0615773.0644951-.0791709.124238-.0175935.0597428-.0263902.1466416-.0263902.2606961 0 .1140546.0087967.2009533.0263902.2606961.0175936.0597429.0439839.1004767.0791709.1222013.0351871.0217247.0852609.0325871.1502216.0325871h1.5184565c.0649607 0 .1150345-.0108624.1502216-.0325871.035187-.0217246.0615773-.0624584.0791709-.1222013.0175935-.0597428.0263902-.1466415.0263902-.2606961 0-.1140545-.0087967-.2009533-.0263902-.2606961-.0175936-.0597429-.0439839-.1011555-.0791709-.124238-.0351871-.0230825-.0852609-.0346237-.1502216-.0346237h-.3126234v-1.6904515c0-.2688428-.0500739-.503062-.1502216-.7026575-.1001478-.1995955-.242926-.3537049-.4283347-.4623283s-.4012677-.1629351-.647577-.1629351c-.5359258 0-.9825306.3122923-1.3398145.9368767v-.5906396c0-.0923299-.0196235-.1581828-.0588706-.1975588s-.1048845-.059064-.1969122-.059064h-.9906507c-.0649607 0-.1150346.0115413-.1502216.0346237-.0351871.0230825-.0615773.0644952-.0791709.124238-.0175935.0597429-.0263903.1466416-.0263903.2606962 0 .1140545.0087968.2009532.0263903.2606961.0175936.0597429.0439838.1004766.0791709.1222013.035187.0217247.0852609.032587.1502216.032587h.3938243v2.0937158h-.3126234c-.0649607 0-.1150346.0115412-.1502216.0346237-.0351871.0230825-.0615774.0644951-.0791709.124238-.0175935.0597428-.0263903.1466416-.0263903.2606961 0 .1140546.0087968.2009533.0263903.2606961.0175935.0597429.0439838.1004767.0791709.1222013.035187.0217247.0852609.0325871.1502216.0325871zm4.8233322.0896143c.2517228 0 .4966788-.0454861.734868-.1364582s.4641984-.2192834.6780273-.3849341c.0676674.1493572.1657852.2586594.2943532.3279068.1285681.0692475.2767597.1038712.4445748.1038712h.454725c.0649607 0 .1150345-.0108624.1502216-.0325871.035187-.0217246.0615773-.0624584.0791708-.1222013.0175936-.0597428.0263903-.1466415.0263903-.2606961 0-.1140545-.0087967-.2009533-.0263903-.2606961-.0175935-.0597429-.0439838-.1011555-.0791708-.124238-.0351871-.0230825-.0852609-.0346237-.1502216-.0346237h-.1258614c-.0866143 0-.1529283-.0305503-.1989422-.091651-.0460138-.0611007-.0690207-.1459627-.0690207-.2545861v-1.1772059c0-.4806585-.1326281-.849978-.3978843-1.1079585-.2652562-.2579806-.6956209-.3869709-1.291094-.3869709-.2381892 0-.4926187.0217247-.7632882.0651741-.2706696.0434493-.5264524.1086234-.7673484.1955221-.124508.0461649-.186762.1384948-.186762.2769896 0 .0760364.0203002.1737974.0609007.2932831.0433071.1194858.091351.2043478.1441315.2545861.0527806.0502383.1130046.0753575.180672.0753575.0324804 0 .0717274-.006789.1177413-.0203669.1921754-.065174.3863808-.117449.5826163-.156825.1962354-.039376.3742007-.059064.5338958-.059064.2869097 0 .4872052.0434494.6008865.1303481.1136812.0868987.1705218.2213201.1705218.4032643v.1181279c-.4060044-.0814675-.7890019-.1222013-1.1489924-.1222013-.4817919 0-.8566693.10455-1.1246322.31365-.2679629.2091001-.4019444.503741-.4019444.8839229 0 .2634117.0588707.4921997.176612.686364.1177412.1941643.2875864.3435214.5095355.4480714.221949.10455.4858519.1568251.7917085.1568251zm.1299215-.8594826c-.1813487 0-.3200668-.0332659-.4161546-.0997977-.0960877-.0665318-.1441315-.163614-.1441315-.2912465 0-.130348.0493972-.2294669.1481916-.2973565s.242926-.1018344.4323947-.1018344c.3410437 0 .6902074.0366604 1.0474913.1099812v.2606961c-.1596951.130348-.3308936.2328614-.5135955.3075399-.182702.0746786-.367434.1120179-.554196.1120179zm6.4798301.7698683c.0649607 0 .1150346-.0108624.1502216-.0325871.0351871-.0217246.0615774-.0624584.0791709-.1222013.0175935-.0597428.0263903-.1466415.0263903-.2606961 0-.1140545-.0087968-.2009533-.0263903-.2606961-.0175935-.0597429-.0439838-.1011555-.0791709-.124238-.035187-.0230825-.0852609-.0346237-.1502216-.0346237h-1.1652326v-.3869708c0-.287852.0548106-.5485481.1644318-.7820884s.2551061-.4168423.4364547-.5499059.3762307-.1995955.5846463-.1995955c.1624018 0 .3193901.0420916.4709651.1262747.0433072.0217247.0839076.032587.1218013.032587.0676674 0 .1319515-.0312292.1928521-.0936876.0609007-.0624585.1157113-.1547884.1644318-.2769897s.0730808-.2281091.0730808-.3177234c0-.1412104-.0595473-.2552649-.1786419-.3421636-.2030022-.1520728-.4195379-.2281092-.6496071-.2281092-.2706696 0-.5379558.1065867-.8018587.3197601-.2639028.2131734-.4973553.51664-.7003575.9103998v-.8839228c0-.0923299-.0196236-.1581828-.0588707-.1975588s-.1048844-.059064-.1969121-.059064h-1.112452c-.0649607 0-.1150346.0115413-.1502217.0346237-.035187.0230825-.0615773.0644952-.0791708.124238-.0175936.0597429-.0263903.1466416-.0263903.2606962 0 .1140545.0087967.2009532.0263903.2606961.0175935.0597429.0439838.1004766.0791708.1222013.0351871.0217247.085261.032587.1502217.032587h.4750251v2.0937158h-.5968265c-.0649607 0-.1150345.0115412-.1502216.0346237-.035187.0230825-.0615773.0644951-.0791708.124238-.0175936.0597428-.0263903.1466416-.0263903.2606961 0 .1140546.0087967.2009533.0263903.2606961.0175935.0597429.0439838.1004767.0791708.1222013.0351871.0217247.0852609.0325871.1502216.0325871zm3.9463627.0896143c.2706696 0 .5467526-.0257981.828249-.0773942s.5575794-.1222013.828249-.2118156c.0703741-.0244403.1211246-.0563484.1522516-.0957244.031127-.0393759.0466905-.0943665.0466905-.1649717s-.0135335-.1561462-.0406004-.2566228c-.0351871-.1303481-.0744342-.2226779-.1177413-.2769896s-.0947344-.0814676-.1542817-.0814676c-.0324803 0-.0649607.0054312-.097441.0162935-.489912.1493572-.9446369.2240358-1.3641748.2240358-.2598428 0-.4743485-.0577062-.643517-.1731185-.1691685-.1154124-.2794663-.2817419-.3308935-.4989887h2.6065482c.0920276 0 .157665-.0190091.1969121-.0570273s.0588706-.1031922.0588706-.1955221c0-.4073377-.0737574-.7691893-.2212724-1.085555-.1475149-.3163656-.3660806-.5634838-.6556971-.7413546-.2896164-.1778708-.6401336-.2668062-1.0515513-.2668062-.4087111 0-.765995.0841832-1.0718516.2525494-.3058567.1683663-.5399859.4019065-.7023876.7006209-.1624018.2987143-.2436027.6381623-.2436027 1.0183442 0 .3828974.0778175.7230244.2334525 1.0203809.1556351.2973565.3823209.5302179.6800574.6985842.2977366.1683662.6523137.2525494 1.0637315.2525494zm.9094499-2.3910723h-1.7864194c.116388-.4182001.4222446-.6273001.91757-.6273001.2327758 0 .4242746.0549906.5744962.1649718s.2483393.2640906.2943532.4623283zm9.0335976 2.3910723c.189469 0 .330217-.0203669.422245-.0611007.092027-.0407338.158341-.1086234.198942-.2036689l1.189593-2.7536028h.276083c.06496 0 .115034-.0108623.150221-.032587s.061578-.0624584.079171-.1222013c.017594-.0597429.026391-.1466416.026391-.2606961 0-.1140546-.008797-.2009533-.026391-.2606962-.017593-.0597428-.043984-.1011555-.079171-.124238-.035187-.0230824-.085261-.0346237-.150221-.0346237h-1.559057c-.064961 0-.115035.0115413-.150222.0346237-.035187.0230825-.061577.0644952-.079171.124238-.017593.0597429-.02639.1466416-.02639.2606962 0 .1140545.008797.2009532.02639.2606961.017594.0597429.043984.1004766.079171.1222013s.085261.032587.150222.032587h.223302l-.726748 1.7963593-.718627-1.7963593h.272023c.06496 0 .115034-.0108623.150221-.032587s.061578-.0624584.079171-.1222013c.017594-.0597429.02639-.1466416.02639-.2606961 0-.1140546-.008796-.2009533-.02639-.2606962-.017593-.0597428-.043984-.1011555-.079171-.124238-.035187-.0230824-.085261-.0346237-.150221-.0346237h-1.640258c-.064961 0-.115035.0115413-.150222.0346237-.035187.0230825-.061577.0644952-.079171.124238-.017593.0597429-.02639.1466416-.02639.2606962 0 .1140545.008797.2009532.02639.2606961.017594.0597429.043984.1004766.079171.1222013s.085261.032587.150222.032587h.267963l1.181473 2.7536028c.0406.0950455.105561.1629351.194882.2036689s.228715.0611007.418184.0611007zm5.014154 0c.27067 0 .546753-.0257981.828249-.0773942.281497-.0515961.55758-.1222013.828249-.2118156.070374-.0244403.121125-.0563484.152252-.0957244.031127-.0393759.046691-.0943665.046691-.1649717s-.013534-.1561462-.040601-.2566228c-.035187-.1303481-.074434-.2226779-.117741-.2769896s-.094735-.0814676-.154282-.0814676c-.03248 0-.064961.0054312-.097441.0162935-.489912.1493572-.944637.2240358-1.364175.2240358-.259842 0-.474348-.0577062-.643517-.1731185-.169168-.1154124-.279466-.2817419-.330893-.4989887h2.606548c.092028 0 .157665-.0190091.196912-.0570273s.058871-.1031922.058871-.1955221c0-.4073377-.073758-.7691893-.221273-1.085555-.147515-.3163656-.36608-.5634838-.655697-.7413546-.289616-.1778708-.640133-.2668062-1.051551-.2668062-.408711 0-.765995.0841832-1.071852.2525494-.305856.1683663-.539986.4019065-.702387.7006209-.162402.2987143-.243603.6381623-.243603 1.0183442 0 .3828974.077818.7230244.233453 1.0203809s.38232.5302179.680057.6985842c.297736.1683662.652314.2525494 1.063731.2525494zm.90945-2.3910723h-1.786419c.116388-.4182001.422245-.6273001.91757-.6273001.232776 0 .424274.0549906.574496.1649718s.248339.2640906.294353.4623283zm5.724662 2.301458c.064961 0 .115035-.0108624.150222-.0325871.035187-.0217246.061577-.0624584.079171-.1222013.017593-.0597428.02639-.1466415.02639-.2606961 0-.1140545-.008797-.2009533-.02639-.2606961-.017594-.0597429-.043984-.1011555-.079171-.124238s-.085261-.0346237-.150222-.0346237h-1.140872v-4.2526056c0-.0923299-.019624-.1581828-.058871-.1975588-.039247-.0393759-.104884-.0590639-.196912-.0590639h-1.705218c-.064961 0-.115035.0115412-.150222.0346237-.035187.0230824-.061577.0644951-.079171.124238-.017593.0597428-.02639.1466415-.02639.2606961s.008797.2009533.02639.2606961c.017594.0597429.043984.1004767.079171.1222013.035187.0217247.085261.0325871.150222.0325871h.94599v3.674186h-1.108392c-.064961 0-.115035.0115412-.150222.0346237s-.061577.0644951-.079171.124238c-.017593.0597428-.02639.1466416-.02639.2606961 0 .1140546.008797.2009533.02639.2606961.017594.0597429.043984.1004767.079171.1222013.035187.0217247.085261.0325871.150222.0325871zm-106.348791 11.7688007c.2706696 0 .5467526-.0257981.8282489-.0773942.2814964-.0515961.5575794-.1222013.828249-.2118156.0703741-.0244402.1211246-.0563483.1522516-.0957243s.0466906-.0943666.0466906-.1649718-.0135335-.1561461-.0406005-.2566227c-.035187-.1303481-.0744341-.222678-.1177413-.2769897-.0433071-.0543117-.0947343-.0814675-.1542816-.0814675-.0324804 0-.0649607.0054312-.0974411.0162935-.489912.1493572-.9446369.2240357-1.3641748.2240357-.2598428 0-.47434842-.0577061-.64351692-.1731185-.1691685-.1154123-.27946636-.2817419-.33089358-.4989887h2.6065482c.0920277 0 .1576651-.0190091.1969121-.0570272.0392471-.0380182.0588707-.1031923.0588707-.1955221 0-.4073377-.0737575-.7691894-.2212724-1.085555s-.3660806-.5634838-.6556971-.7413546-.6401336-.2668062-1.0515514-.2668062c-.40871109 0-.76599495.0841831-1.0718516.2525494-.30585664.1683662-.53998584.4019065-.7023876.7006208s-.24360264.6381624-.24360264 1.0183442c0 .3828975.07781751.7230245.23345253 1.020381s.3823208.5302179.68005736.6985841c.29773656.1683663.65231373.2525494 1.06373155.2525494zm.9094498-2.3910723h-1.78641933c.11638793-.4182.42224457-.6273.91756993-.6273.2327759 0 .4242746.0549906.5744962.1649717.1502217.1099812.2483394.2640906.2943532.4623283zm3.5647186 2.3910723c.5359258 0 .9825306-.3122922 1.3398145-.9368767v.5906397c0 .0923298.0196236.1581828.0588706.1975587.0392471.039376.1048845.059064.1969122.059064h.9094498c.0649607 0 .1150346-.0115412.1502216-.0346237.0351871-.0230825.0615774-.0644951.0791709-.124238s.0263903-.1466416.0263903-.2606961c0-.1140546-.0087968-.2009533-.0263903-.2606961-.0175935-.0597429-.0439838-.1004767-.0791709-.1222014-.035187-.0217246-.0852609-.032587-.1502216-.032587h-.3126234v-2.6721353c0-.0923298-.0196235-.1581828-.0588706-.1975587-.0392471-.039376-.1048845-.059064-.1969121-.059064h-1.193653c-.0649607 0-.1150345.0108623-.1502216.032587-.035187.0217247-.0615773.0624584-.0791708.1222013-.0175936.0597429-.0263903.1466416-.0263903.2606961 0 .1140546.0087967.2009533.0263903.2606962.0175935.0597428.0439838.1011555.0791708.124238.0351871.0230824.0852609.0346237.1502216.0346237h.4344247v.6639604c0 .2498338-.0426304.4847319-.1278913.7046942-.085261.2199624-.1982655.3957965-.3390137.5275023-.1407482.1317059-.2896165.1975588-.4466048.1975588-.1705219 0-.2923232-.0543117-.365404-.1629351-.0730808-.1086233-.1096212-.2688428-.1096212-.4806584v-2.0285418c0-.0923298-.0196235-.1581828-.0588706-.1975587-.0392471-.039376-.1048845-.059064-.1969122-.059064h-1.0718516c-.0649607 0-.1150345.0108623-.1502216.032587-.035187.0217247-.0615773.0624584-.0791708.1222013-.0175936.0597429-.0263903.1466416-.0263903.2606961 0 .1140546.0087967.2009533.0263903.2606962.0175935.0597428.0439838.1011555.0791708.124238.0351871.0230824.0852609.0346237.1502216.0346237h.3126234v1.6904514c0 .2688429.0500739.5030621.1502217.7026575.1001477.1995955.2429259.3537049.4283346.4623283s.4012677.1629351.647577.1629351zm12.1314113-.0896143c.0649607 0 .1150346-.0108623.1502217-.032587.035187-.0217247.0615773-.0624585.0791708-.1222013.0175935-.0597429.0263903-.1466416.0263903-.2606961 0-.1140546-.0087968-.2009533-.0263903-.2606962-.0175935-.0597428-.0439838-.1011555-.0791708-.124238-.0351871-.0230824-.085261-.0346237-.1502217-.0346237h-1.1408723v-4.2526055c0-.0923299-.0196236-.1581828-.0588707-.1975588-.039247-.039376-.1048844-.059064-.1969121-.059064h-1.7052184c-.0649608 0-.1150346.0115413-.1502217.0346237-.035187.0230825-.0615773.0644952-.0791708.124238-.0175936.0597429-.0263903.1466416-.0263903.2606961 0 .1140546.0087967.2009533.0263903.2606962.0175935.0597428.0439838.1004766.0791708.1222013.0351871.0217247.0852609.032587.1502217.032587h.9459902v3.674186h-1.108392c-.0649607 0-.1150346.0115413-.1502216.0346237-.0351871.0230825-.0615774.0644952-.0791709.124238-.0175935.0597429-.0263903.1466416-.0263903.2606962 0 .1140545.0087968.2009532.0263903.2606961.0175935.0597428.0439838.1004766.0791709.1222013.035187.0217247.0852609.032587.1502216.032587zm3.3373562.0896143c.2706696 0 .5467525-.0257981.8282489-.0773942s.5575794-.1222013.828249-.2118156c.0703741-.0244402.1211246-.0563483.1522516-.0957243s.0466905-.0943666.0466905-.1649718-.0135334-.1561461-.0406004-.2566227c-.035187-.1303481-.0744341-.222678-.1177413-.2769897-.0433071-.0543117-.0947343-.0814675-.1542816-.0814675-.0324804 0-.0649607.0054312-.0974411.0162935-.489912.1493572-.9446369.2240357-1.3641748.2240357-.2598428 0-.4743484-.0577061-.6435169-.1731185-.1691685-.1154123-.2794664-.2817419-.3308936-.4989887h2.6065482c.0920277 0 .157665-.0190091.1969121-.0570272.0392471-.0380182.0588707-.1031923.0588707-.1955221 0-.4073377-.0737575-.7691894-.2212724-1.085555s-.3660806-.5634838-.6556971-.7413546-.6401336-.2668062-1.0515514-.2668062c-.4087111 0-.765995.0841831-1.0718516.2525494-.3058566.1683662-.5399858.4019065-.7023876.7006208s-.2436026.6381624-.2436026 1.0183442c0 .3828975.0778175.7230245.2334525 1.020381s.3823208.5302179.6800573.6985841c.2977366.1683663.6523138.2525494 1.0637316.2525494zm.9094498-2.3910723h-1.7864193c.1163879-.4182.4222445-.6273.9175699-.6273.2327759 0 .4242746.0549906.5744962.1649717.1502216.1099812.2483394.2640906.2943532.4623283zm4.060044 2.3910723c.4114177 0 .7714083-.0841831 1.0799717-.2525494.3085633-.1683662.5460759-.4019065.7125377-.7006208s.2496927-.6381624.2496927-1.0183443c0-.3801818-.0832309-.7196299-.2496927-1.0183442s-.4039744-.5322546-.7125377-.7006208c-.3085634-.1683663-.668554-.2525494-1.0799717-.2525494-.4114178 0-.7714084.0841831-1.0799717.2525494-.3085634.1683662-.5460759.4019065-.7125377.7006208s-.2496927.6381624-.2496927 1.0183442c0 .3801819.0832309.71963.2496927 1.0183443s.4039743.5322546.7125377.7006208c.3085633.1683663.6685539.2525494 1.0799717.2525494zm0-.9246566c-.1948822 0-.3640506-.0427704-.5075055-.1283113-.1434549-.085541-.2537528-.2070634-.3308936-.3645673-.0771409-.1575039-.1157113-.3421637-.1157113-.5539793s.0385704-.3964753.1157113-.5539792c.0771408-.1575039.1874387-.2790263.3308936-.3645673.1434549-.0855409.3126233-.1283113.5075055-.1283113.1948821 0 .3640506.0427704.5075055.1283113.1434548.085541.2537527.2070634.3308935.3645673.0771409.1575039.1157113.3421636.1157113.5539792s-.0385704.3964754-.1157113.5539793c-.0771408.1575039-.1874387.2790263-.3308935.3645673-.1434549.0855409-.3126234.1283113-.5075055.1283113zm4.9857339.8757761c.2354826 0 .4060044-.019688.5115656-.059064.1055611-.039376.1583417-.1052289.1583417-.1975588v-1.0346377c0-.0923299-.0527806-.1581828-.1583417-.1975588-.1055612-.039376-.276083-.059064-.5115656-.059064-.2354825 0-.4060044.019688-.5115655.059064s-.1583417.1052289-.1583417.1975588v1.0346377c0 .0923299.0527806.1581828.1583417.1975588s.276083.059064.5115655.059064z" fill="#333d51"/></g><path d="m1.5 69.5h139" stroke="#191d27" stroke-linecap="square"/></g></g></svg>