<svg height="181" viewBox="0 0 329 181" width="329" xmlns="http://www.w3.org/2000/svg"><g fill="none" fill-rule="evenodd"><path d="m0 0h329v181h-329z" fill="#fffefc"/><g transform="translate(94 20)"><path d="m140.5.5h-140v140h140z" fill="#fff6e5" stroke="#191d27"/><path d="m1 1h139v70h-139z" fill="#fff" opacity=".681106"/><path d="m1.5 71.5h139" stroke="#191d27" stroke-linecap="square"/><g fill-rule="nonzero"><g fill="#bd1452" transform="translate(50 20)"><path d="m34 4h-2v-2c0-1.1-.9-2-2-2h-28c-1.1 0-2 .9-2 2v24c0 1.1.9 2 2 2h2v2c0 1.1.9 2 2 2h28c1.1 0 2-.9 2-2v-24c0-1.1-.9-2-2-2zm-30 2v20h-1.9964375c-.00125-.0010625-.0025625-.002375-.0035625-.003625v-23.9928125c.0010625-.00125.002375-.0025625.0035625-.0035625h27.9928125c.00125.0010625.0025625.002375.003625.003625v1.996375h-24c-1.1 0-2 .9-2 2zm30 23.996375c-.0010625.00125-.002375.0025625-.003625.003625h-27.9928125c-.00125-.0010625-.0025625-.002375-.0035625-.003625v-23.9928125c.0010625-.00125.002375-.0025625.0035625-.0035625h27.9928125c.00125.0010625.0025625.002375.003625.003625z"/><path d="m31.0909091 11.7894737c0 1.8603509-1.4652273 3.368421-3.2727273 3.368421s-3.2727273-1.5080701-3.2727273-3.368421c0-1.86035089 1.4652273-3.36842107 3.2727273-3.36842107s3.2727273 1.50807018 3.2727273 3.36842107z"/><path d="m32.7272727 28.6315789h-24.54545452v-4.2105263l7.15909092-12.6315789 8.1818182 10.5263158h2.0454545l7.1590909-6.3157895z"/></g><path d="m17.0289898 92.7974603c.1882846 0 .3227735-.0426455.4034669-.1279365.0806933-.085291.12104-.2214815.12104-.4085714v-3.8133334c0-.1320634-.0268978-.2338624-.0806934-.3053968-.0537955-.0715344-.1492827-.1251852-.2864614-.1609524s-.3321877-.0536508-.5850269-.0536508c-.3819486 0-.6549611.0398942-.8190377.1196826-.1640765.0797883-.2461147.2132275-.2461147.4003174v2.5752381h-2.8323371v-6.3307936h1.7591153c.1291094 0 .2286312-.0220106.2985655-.0660318.0699342-.0440211.1223849-.1265608.157352-.247619.0349672-.1210582.0524507-.2971429.0524507-.528254s-.0174835-.4071957-.0524507-.5282539c-.0349671-.1210582-.0874178-.2049736-.157352-.2517461-.0699343-.0467725-.1694561-.0701587-.2985655-.0701587h-4.9545726c-.12910938 0-.2286312.0233862-.29856545.0701587s-.12238494.1306879-.15735206.2517461c-.03496713.1210582-.05245069.2971428-.05245069.5282539s.01748356.4071958.05245069.528254c.03496712.1210582.08741781.2035979.15735206.247619.06993425.0440212.16945607.0660318.29856545.0660318h1.1781231v6.4133333h-1.1781231c-.12910938 0-.2286312.0233863-.29856545.0701588-.06993425.0467724-.12238494.1306878-.15735206.251746-.03496713.1210582-.05245069.2971428-.05245069.528254 0 .2311111.01748356.4071957.05245069.5282539.03496712.1210582.08741781.2035979.15735206.2476191.06993425.0440211.16945607.0660317.29856545.0660317zm6.3505679.1815873c.8176927 0 1.5331739-.170582 2.1464435-.511746s1.0853258-.8143915 1.4161686-1.4196826c.3308428-.605291.4962642-1.2931216.4962642-2.063492s-.1654214-1.4582011-.4962642-2.0634921-.802899-1.0785185-1.4161686-1.4196825-1.3287508-.5117461-2.1464435-.5117461c-.8176928 0-1.533174.1705821-2.1464435.5117461-.6132696.341164-1.0853258.8143915-1.4161686 1.4196825s-.4962642 1.2931217-.4962642 2.0634921.1654214 1.458201.4962642 2.063492c.3308428.6052911.802899 1.0785186 1.4161686 1.4196826.6132695.341164 1.3287507.511746 2.1464435.511746zm0-1.8736508c-.3873282 0-.7235505-.0866666-1.0086671-.26-.2851165-.1733333-.5043335-.4195767-.6576509-.7387301-.1533174-.3191535-.2299761-.6933334-.2299761-1.1225397 0-.4292064.0766587-.8033863.2299761-1.1225397s.3725344-.5653968.6576509-.7387302c.2851166-.1733333.6213389-.26 1.0086671-.26.3873281 0 .7235505.0866667 1.008667.26.2851166.1733334.5043336.4195768.657651.7387302s.2299761.6933333.2299761 1.1225397c0 .4292063-.0766587.8033862-.2299761 1.1225397-.1533174.3191534-.3725344.5653968-.657651.7387301-.2851165.1733334-.6213389.26-1.008667.26zm12.0071727 1.6920635c.1291094 0 .2286312-.0220106.2985655-.0660317.0699342-.0440212.1223849-.1265609.157352-.2476191.0349672-.1210582.0524507-.2971428.0524507-.5282539 0-.2311112-.0174835-.4071958-.0524507-.528254-.0349671-.1210582-.0874178-.2049736-.157352-.251746-.0699343-.0467725-.1694561-.0701588-.2985655-.0701588h-2.3158996v-.784127c0-.5832804.1089361-1.1115344.3268082-1.5847619s.5070233-.844656.8674536-1.1142857c.3604304-.2696296.7477586-.4044444 1.1619845-.4044444.3227735 0 .6347878.085291.936043.255873.086073.0440212.1667663.0660317.2420801.0660317.134489 0 .2622535-.0632804.3832935-.1898412.1210401-.1265609.2299761-.3136508.3268082-.5612699.096832-.247619.145248-.4622222.145248-.6438095 0-.2861376-.1183503-.5172487-.3550508-.6933333-.4034668-.3081482-.8338314-.4622223-1.2910938-.4622223-.5379558 0-1.0691871.2159789-1.593694.6479366-.5245069.4319576-.9884937 1.0468783-1.3919606 1.8447619v-1.7911111c0-.18709-.0390017-.3205291-.1170053-.4003175s-.2084579-.1196825-.3913629-.1196825h-2.2109982c-.1291093 0-.2286312.0233862-.2985654.0701587-.0699343.0467725-.1223849.1306878-.1573521.251746-.0349671.1210582-.0524507.2971429-.0524507.528254s.0174836.4071957.0524507.5282539c.0349672.1210583.0874178.2035979.1573521.2476191.0699342.0440212.1694561.0660317.2985654.0660317h.9441124v4.2425397h-1.1861925c-.1291093 0-.2286312.0233863-.2985654.0701588-.0699343.0467724-.1223849.1306878-.1573521.251746-.0349671.1210582-.0524507.2971428-.0524507.528254 0 .2311111.0174836.4071957.0524507.5282539.0349672.1210582.0874178.2035979.1573521.2476191.0699342.0440211.1694561.0660317.2985654.0660317zm7.8433951.1815873c.5379558 0 1.0866707-.0522751 1.6461447-.1568254.559474-.1045502 1.1081889-.247619 1.6461446-.4292063.1398685-.0495238.2407352-.1141799.3026001-.1939683.061865-.0797883.0927974-.1912169.0927974-.3342857s-.0268978-.3164021-.0806934-.52c-.0699342-.264127-.1479378-.4512169-.2340107-.5612698s-.1882845-.1650794-.3066348-.1650794c-.0645547 0-.1291094.0110053-.1936641.0330159-.9736999.3026455-1.8774656.4539682-2.711297.4539682-.5164376 0-.9427675-.1169312-1.2789899-.3507936-.3362223-.2338625-.5554393-.5708995-.6576509-1.0111111h5.180514c.182905 0 .3133593-.0385186.3913629-.1155556.0780035-.077037.1170053-.2091005.1170053-.3961905 0-.8253968-.1465929-1.5586243-.4397788-2.1996825s-.7275852-1.1417989-1.3031979-1.5022222c-.5756126-.3604233-1.2722653-.540635-2.0899581-.540635-.8123132 0-1.5224148.1705821-2.1303049.5117461-.60789.341164-1.0732217.8143915-1.3959952 1.4196825-.3227734.605291-.4841602 1.2931217-.4841602 2.0634921 0 .775873.1546623 1.4650793.4639869 2.067619s.7598625 1.0743916 1.3516139 1.4155556c.5917513.341164 1.2964734.511746 2.1141661.511746zm1.8075314-4.8450793h-3.5505081c.231321-.8474075.839211-1.2711112 1.8236701-1.2711112.4626419 0 .8432457.1114286 1.1418111.3342858.2985655.2228571.4935744.5351322.5850269.9368254zm5.4790795 4.663492c.182905 0 .3133592-.0398942.3913628-.1196825.0780036-.0797884.1170054-.2132275.1170054-.4003175v-2.8063492c0-.7703704.0739689-1.3564021.2219068-1.7580952.1479378-.4016931.3483263-.6025397.6011655-.6025397.1452481 0 .2514943.0687831.3187388.2063492s.1008667.3521693.1008667.6438095v4.3168254c0 .18709.0390018.3205291.1170054.4003175.0780036.0797883.2084579.1196825.3913628.1196825h1.0005978c.1829049 0 .3133592-.0398942.3913628-.1196825.0780036-.0797884.1170054-.2132275.1170054-.4003175v-2.8063492c0-.7703704.0739689-1.3564021.2219067-1.7580952s.3483264-.6025397.6011656-.6025397c.145248 0 .2514943.0687831.3187388.2063492.0672444.1375661.1008667.3521693.1008667.6438095v4.3168254c0 .18709.0390018.3205291.1170054.4003175.0780035.0797883.2084578.1196825.3913628.1196825h1.0005977c.182905 0 .3133592-.0398942.3913628-.1196825.0780036-.0797884.1170054-.2132275.1170054-.4003175v-4.7873016c0-.8419047-.1425583-1.4692063-.4276748-1.8819047-.2851166-.4126984-.6751345-.6190477-1.1700538-.6190477-.3819486 0-.7369994.1416932-1.0651524.4250794-.3281531.2833863-.6159594.7002117-.863419 1.2504762-.231321-1.117037-.7450688-1.6755556-1.5412433-1.6755556-.4088464 0-.7840706.1595768-1.1256725.4787302s-.6388224.7896296-.8916617 1.4114286v-1.1885714c0-.18709-.0390017-.3205291-.1170053-.4003175s-.2084579-.1196825-.3913629-.1196825h-1.4040645c-.1291094 0-.2286312.0233862-.2985655.0701587-.0699342.0467725-.1223849.1306878-.157352.251746s-.0524507.2971429-.0524507.528254.0174836.4071957.0524507.5282539c.0349671.1210583.0874178.2035979.157352.2476191.0699343.0440212.1694561.0660317.2985655.0660317h.4599522v5.4146032c0 .18709.0390018.3205291.1170054.4003175.0780035.0797883.2084578.1196825.3913628.1196825zm25.4829647 0c.1291094 0 .2286312-.0220106.2985655-.0660317.0699342-.0440212.1223849-.1265609.157352-.2476191.0349672-.1210582.0524507-.2971428.0524507-.5282539 0-.2311112-.0174835-.4071958-.0524507-.528254-.0349671-.1210582-.0874178-.2049736-.157352-.251746-.0699343-.0467725-.1694561-.0701588-.2985655-.0701588h-2.0657501v-6.4133333h1.9043634c.1291094 0 .2286312-.0220106.2985655-.0660318.0699342-.0440211.1223849-.1265608.157352-.247619s.0524507-.2971429.0524507-.528254-.0174836-.4071957-.0524507-.5282539-.0874178-.2049736-.157352-.2517461c-.0699343-.0467725-.1694561-.0701587-.2985655-.0701587h-5.826061c-.1291093 0-.2286312.0233862-.2985654.0701587-.0699343.0467725-.122385.1306879-.1573521.2517461s-.0524507.2971428-.0524507.5282539.0174836.4071958.0524507.528254.0874178.2035979.1573521.247619c.0699342.0440212.1694561.0660318.2985654.0660318h1.9043635v6.4133333h-2.0657502c-.1291094 0-.2286312.0233863-.2985654.0701588-.0699343.0467724-.122385.1306878-.1573521.251746s-.0524507.2971428-.0524507.528254c0 .2311111.0174836.4071957.0524507.5282539s.0874178.2035979.1573521.2476191c.0699342.0440211.169456.0660317.2985654.0660317zm6.7540347 3.2025397c.1291094 0 .2286312-.0233862.2985655-.0701587.0699342-.0467725.1223849-.1306879.157352-.2517461s.0524507-.2971428.0524507-.5282539-.0174836-.4071958-.0524507-.528254-.0874178-.2035979-.157352-.247619c-.0699343-.0440212-.1694561-.0660318-.2985655-.0660318h-1.3475792v-2.3028571c.2743574.3136508.5917513.5543915.9521817.7222222s.7504483.251746 1.1700538.251746c.7047221 0 1.3206814-.1760846 1.8478781-.5282539.5271966-.3521694.9306635-.8308995 1.2104005-1.4361905s.4196055-1.2821164.4196055-2.0304762-.1398685-1.4251852-.4196055-2.0304762-.6832039-1.0840212-1.2104005-1.4361905c-.5271967-.3521693-1.143156-.528254-1.8478781-.528254-.511058 0-.9763897.1224339-1.3959952.3673016-.4196055.2448678-.7692768.5874074-1.0490138 1.0276191v-.6933333c0-.18709-.0390017-.3205291-.1170053-.4003175s-.2084579-.1196825-.3913629-.1196825h-1.8882247c-.1291094 0-.2286312.0233862-.2985655.0701587-.0699342.0467725-.1223849.1306878-.157352.251746s-.0524507.2971429-.0524507.528254.0174836.4071957.0524507.5282539c.0349671.1210583.0874178.2035979.157352.2476191.0699343.0440212.1694561.0660317.2985655.0660317h.7020323v7.4450794h-.7020323c-.1291094 0-.2286312.0233863-.2985655.0701587-.0699342.0467725-.1223849.1306879-.157352.2517461s-.0524507.2971428-.0524507.5282539.0174836.4071958.0524507.528254.0874178.2035979.157352.2476191c.0699343.0440211.1694561.0660317.2985655.0660317zm.4518828-4.8946032c-.3442916 0-.656306-.0825397-.936043-.247619-.279737-.1650794-.5029886-.4085715-.6697549-.7304762-.1667663-.3219048-.2501495-.702963-.2501495-1.1431746 0-.4402117.0833832-.8212699.2501495-1.1431746.1667663-.3219048.3900179-.5653968.6697549-.7304762s.5917514-.2476191.936043-.2476191c.3335326 0 .6240287.0866667.8714884.26.2474596.1733334.4370891.4195768.5688882.7387302.1317992.3191534.1976988.6933333.1976988 1.1225397 0 .4292063-.0658996.8033862-.1976988 1.1225397-.1317991.3191534-.3214286.5653968-.5688882.7387301-.2474597.1733334-.5379558.26-.8714884.26zm10.0059773 1.8736508c.6778243 0 1.2574716-.1031746 1.7389421-.3095238.4814704-.2063492.8472803-.5007407 1.0974297-.8831746.2501495-.3824339.3752242-.8350264.3752242-1.3577778 0-.5337566-.1210401-.9629629-.3631202-1.287619s-.5783024-.5777778-1.008667-.7593651c-.2958757-.1210582-.6092349-.2118519-.9400777-.272381s-.7464137-.1210582-1.2467125-.1815873c-.5056785-.0495238-.863419-.1017989-1.0732218-.1568253-.3980873-.0990477-.5971309-.264127-.5971309-.4952381 0-.1925926.0901076-.3466667.2703228-.4622223.1802152-.1155555.4290197-.1733333.7464136-.1733333.5379558 0 1.0113569.0729101 1.4202032.2187302.4088464.1458201.7719666.3920635 1.0893605.7387301.1075911.1155556.303945.1733334.5890615.1733334.2635984 0 .4532278-.0398942.5688883-.1196826.1156604-.0797883.1734907-.2132275.1734907-.4003174v-1.7415874c0-.1870899-.072624-.3205291-.2178721-.4003174-.1452481-.0797884-.3900179-.1196826-.7343096-.1196826-.3389122 0-.5742678.0398942-.706067.1196826-.1317991.0797883-.1976987.2132275-.1976987.4003174v.0825397c-.6294083-.4016931-1.350269-.6025397-2.1625822-.6025397-.5540944 0-1.0530484.0949207-1.4968619.284762-.4438135.1898412-.7921399.4635978-1.0449791.8212698s-.3792588.775873-.3792588 1.2546032c0 .9024338.3711895 1.5627513 1.1135684 1.9809524.3173939.1815873.6710998.3150264 1.0611178.4003174.3900179.085291.8566945.1609524 1.4000299.2269841.4895397.0715344.8015541.1210582.936043.1485715.2367005.0550264.4155708.1238095.5366109.2063492.12104.0825397.18156.1925926.18156.3301587 0 .4567196-.4303646.6850794-1.2910938.6850794-.5002989 0-.960251-.0797884-1.3798565-.2393651s-.7638972-.4126984-1.0328751-.7593651c-.1183503-.1540741-.3416019-.2311111-.6697549-.2311111-.2635984 0-.4586073.0412698-.5850269.1238095s-.1896295.2146032-.1896295.3961905v1.8406349c0 .18709.0726241.3205291.2178721.4003175.1452481.0797883.390018.1196825.7343097.1196825.3442916 0 .5944411-.0398942.7504483-.1196825.1560071-.0797884.2340107-.2132275.2340107-.4003175v-.0660317c.6401674.3906878 1.3341303.5860317 2.0818888.5860317zm8.4566651 0c1.065152 0 1.952779-.6328042 2.662881-1.8984127v1.1968254c0 .18709.039001.3205291.117005.4003175.078004.0797883.208458.1196825.391363.1196825h1.807531c.12911 0 .228631-.0233862.298566-.0701587.069934-.0467725.122385-.1306878.157352-.251746s.05245-.2971429.05245-.528254-.017483-.4071958-.05245-.528254-.087418-.2035979-.157352-.247619c-.069935-.0440212-.169456-.0660318-.298566-.0660318h-.621339v-5.4146031c0-.18709-.039001-.3205291-.117005-.4003175s-.208458-.1196825-.391363-.1196825h-2.372385c-.129109 0-.228631.0220105-.298565.0660317-.069935.0440212-.122385.1265608-.157352.247619s-.052451.2971429-.052451.528254.017484.4071958.052451.528254.087417.2049735.157352.251746c.069934.0467725.169456.0701587.298565.0701587h.863419v1.3453969c0 .5062434-.084728.9822222-.254184 1.4279365s-.394052.8020106-.673789 1.0688889-.575613.4003174-.887628.4003174c-.338912 0-.580992-.1100529-.72624-.3301587s-.217872-.5447619-.217872-.9739683v-4.1104761c0-.18709-.039002-.3205291-.117005-.4003175-.078004-.0797884-.208458-.1196825-.391363-.1196825h-2.1303049c-.1291094 0-.2286312.0220105-.2985655.0660317-.0699342.0440212-.1223849.1265608-.157352.247619-.0349672.1210582-.0524507.2971429-.0524507.528254s.0174835.4071958.0524507.528254c.0349671.1210582.0874178.2049735.157352.251746.0699343.0467725.1694561.0701587.2985655.0701587h.6213389v3.4253969c0 .5447619.0995218 1.019365.2985654 1.4238095.1990437.4044444.4828156.7167196.8513146.9368254.3685.2201058.79752.3301587 1.28706.3301587zm8.303347-.1815873c.182905 0 .313359-.0398942.391363-.1196825.078003-.0797884.117005-.2132275.117005-.4003175v-2.8063492c0-.7703704.073969-1.3564021.221907-1.7580952s.348326-.6025397.601165-.6025397c.145248 0 .251495.0687831.318739.2063492.067245.1375661.100867.3521693.100867.6438095v4.3168254c0 .18709.039002.3205291.117005.4003175.078004.0797883.208458.1196825.391363.1196825h1.000598c.182905 0 .313359-.0398942.391363-.1196825.078003-.0797884.117005-.2132275.117005-.4003175v-2.8063492c0-.7703704.073969-1.3564021.221907-1.7580952s.348326-.6025397.601165-.6025397c.145248 0 .251495.0687831.318739.2063492.067245.1375661.100867.3521693.100867.6438095v4.3168254c0 .18709.039002.3205291.117005.4003175.078004.0797883.208458.1196825.391363.1196825h1.000598c.182905 0 .313359-.0398942.391363-.1196825.078003-.0797884.117005-.2132275.117005-.4003175v-4.7873016c0-.8419047-.142558-1.4692063-.427675-1.8819047-.285116-.4126984-.675134-.6190477-1.170054-.6190477-.381948 0-.736999.1416932-1.065152.4250794-.328153.2833863-.615959.7002117-.863419 1.2504762-.231321-1.117037-.745069-1.6755556-1.541243-1.6755556-.408847 0-.784071.1595768-1.125673.4787302s-.638822.7896296-.891661 1.4114286v-1.1885714c0-.18709-.039002-.3205291-.117006-.4003175-.078003-.0797884-.208458-.1196825-.391363-.1196825h-1.404064c-.12911 0-.228631.0233862-.298566.0701587-.069934.0467725-.122385.1306878-.157352.251746s-.05245.2971429-.05245.528254.017483.4071957.05245.5282539c.034967.1210583.087418.2035979.157352.2476191.069935.0440212.169456.0660317.298566.0660317h.459952v5.4146032c0 .18709.039002.3205291.117005.4003175.078004.0797883.208458.1196825.391363.1196825z" fill="#333d51"/><path d="m11.7271203 107.641627c.1624018 0 .2774364-.022403.3451038-.067211.0676674-.044807.1015011-.112017.1015011-.201632v-3.820827h.2314225c.0649607 0 .1150346-.010863.1502216-.032587.0351871-.021725.0615773-.062459.0791709-.122202.0175935-.059743.0263903-.146641.0263903-.260696 0-.114054-.0087968-.200953-.0263903-.260696-.0175936-.059743-.0439838-.101155-.0791709-.124238-.035187-.023082-.0852609-.034624-.1502216-.034624h-1.5225165c-.0649607 0-.1150346.011542-.1502216.034624-.0351871.023083-.0615774.064495-.0791709.124238s-.0263903.146642-.0263903.260696c0 .114055.0087968.200953.0263903.260696s.0439838.100477.0791709.122202c.035187.021724.0852609.032587.1502216.032587h.3735241v2.073349h-.0162402l-1.68491827-2.79841c-.04330713-.073321-.11909462-.109982-.22736246-.109982h-1.0718516c-.0649607 0-.11503458.011542-.15022163.034624-.03518704.023083-.06157733.064495-.07917085.124238-.01759353.059743-.02639029.146642-.02639029.260696 0 .114055.00879676.200953.02639029.260696.01759352.059743.04398381.100477.07917085.122202.03518705.021724.08526093.032587.15022163.032587h.27202294v3.165014h-.27202294c-.0649607 0-.11503458.011541-.15022163.034623-.03518704.023083-.06157733.064495-.07917085.124238-.01759353.059743-.02639029.146642-.02639029.260696 0 .114055.00879676.200954.02639029.260696.01759352.059743.04398381.100477.07917085.122202.03518705.021724.08526093.032587.15022163.032587h1.64025776c.0649607 0 .11503457-.010863.15022167-.032587.035187-.021725.0615773-.062459.0791708-.122202.0175935-.059742.0263903-.146641.0263903-.260696 0-.114054-.0087968-.200953-.0263903-.260696s-.0439838-.101155-.0791708-.124238c-.0351871-.023082-.08526097-.034623-.15022167-.034623h-.45066488v-2.325899h.01624017l1.82701978 3.034666c.0460138.076036.0994711.131027.1603717.164972.0609007.033945.153605.050917.278113.050917zm3.0531531 0c.5359258 0 .9825306-.312292 1.3398145-.936877v.59064c0 .09233.0196236.158183.0588706.197559.0392471.039376.1048845.059064.1969122.059064h.9094498c.0649607 0 .1150346-.011541.1502216-.034624.0351871-.023082.0615774-.064495.0791709-.124238s.0263903-.146641.0263903-.260696-.0087968-.200953-.0263903-.260696-.0439838-.100477-.0791709-.122201c-.035187-.021725-.0852609-.032587-.1502216-.032587h-.3126234v-2.672136c0-.09233-.0196235-.158183-.0588706-.197559s-.1048845-.059064-.1969121-.059064h-1.193653c-.0649607 0-.1150345.010863-.1502216.032588-.035187.021724-.0615773.062458-.0791708.122201-.0175936.059743-.0263903.146641-.0263903.260696 0 .114054.0087967.200953.0263903.260696.0175935.059743.0439838.101156.0791708.124238.0351871.023083.0852609.034624.1502216.034624h.4344247v.66396c0 .249834-.0426304.484732-.1278913.704694-.085261.219963-.1982655.395797-.3390137.527503s-.2896165.197559-.4466048.197559c-.1705219 0-.2923232-.054312-.365404-.162936-.0730808-.108623-.1096212-.268842-.1096212-.480658v-2.028542c0-.09233-.0196235-.158183-.0588706-.197559s-.1048845-.059064-.1969122-.059064h-1.0718516c-.0649607 0-.1150345.010863-.1502216.032588-.035187.021724-.0615773.062458-.0791708.122201-.0175936.059743-.0263903.146641-.0263903.260696 0 .114054.0087967.200953.0263903.260696.0175935.059743.0439838.101156.0791708.124238.0351871.023083.0852609.034624.1502216.034624h.3126234v1.690451c0 .268843.0500739.503062.1502217.702658.1001477.199595.2429259.353705.4283346.462328s.4012677.162935.647577.162935zm7.1456774-.089614c.0649607 0 .1150345-.010863.1502216-.032587.035187-.021725.0615773-.062459.0791708-.122202.0175936-.059742.0263903-.146641.0263903-.260696 0-.114054-.0087967-.200953-.0263903-.260696-.0175935-.059743-.0439838-.101155-.0791708-.124238-.0351871-.023082-.0852609-.034623-.1502216-.034623h-1.1408724v-4.252606c0-.09233-.0196235-.158183-.0588706-.197559s-.1048845-.059064-.1969122-.059064h-1.7052184c-.0649607 0-.1150346.011541-.1502216.034624-.0351871.023082-.0615774.064495-.0791709.124238s-.0263903.146641-.0263903.260696.0087968.200953.0263903.260696.0439838.100477.0791709.122201c.035187.021725.0852609.032588.1502216.032588h.9459902v3.674186h-1.108392c-.0649607 0-.1150346.011541-.1502216.034623-.0351871.023083-.0615773.064495-.0791709.124238-.0175935.059743-.0263902.146642-.0263902.260696 0 .114055.0087967.200954.0263902.260696.0175936.059743.0439838.100477.0791709.122202.035187.021724.0852609.032587.1502216.032587zm4.9857339 0c.0649607 0 .1150346-.010863.1502217-.032587.035187-.021725.0615773-.062459.0791708-.122202.0175935-.059742.0263903-.146641.0263903-.260696 0-.114054-.0087968-.200953-.0263903-.260696s-.0439838-.101155-.0791708-.124238c-.0351871-.023082-.085261-.034623-.1502217-.034623h-1.1408723v-4.252606c0-.09233-.0196236-.158183-.0588707-.197559-.039247-.039376-.1048844-.059064-.1969121-.059064h-1.7052184c-.0649608 0-.1150346.011541-.1502217.034624-.035187.023082-.0615773.064495-.0791708.124238-.0175936.059743-.0263903.146641-.0263903.260696s.0087967.200953.0263903.260696c.0175935.059743.0439838.100477.0791708.122201.0351871.021725.0852609.032588.1502217.032588h.9459902v3.674186h-1.108392c-.0649607 0-.1150346.011541-.1502216.034623-.0351871.023083-.0615774.064495-.0791709.124238s-.0263903.146642-.0263903.260696c0 .114055.0087968.200954.0263903.260696.0175935.059743.0439838.100477.0791709.122202.035187.021724.0852609.032587.1502216.032587zm2.7527098.089614c.2517228 0 .4966787-.045486.734868-.136458.2381892-.090972.4641983-.219283.6780273-.384934.0676674.149357.1657852.258659.2943532.327907.1285681.069247.2767597.103871.4445748.103871h.4547249c.0649608 0 .1150346-.010863.1502217-.032587.035187-.021725.0615773-.062459.0791708-.122202.0175936-.059742.0263903-.146641.0263903-.260696 0-.114054-.0087967-.200953-.0263903-.260696-.0175935-.059743-.0439838-.101155-.0791708-.124238-.0351871-.023082-.0852609-.034623-.1502217-.034623h-.1258613c-.0866143 0-.1529283-.030551-.1989422-.091651-.0460138-.061101-.0690207-.145963-.0690207-.254587v-1.177205c0-.480659-.1326281-.849978-.3978843-1.107959s-.6956209-.386971-1.291094-.386971c-.2381892 0-.4926187.021725-.7632883.065174-.2706696.04345-.5264523.108624-.7673483.195522-.124508.046165-.186762.138495-.186762.27699 0 .076036.0203002.173797.0609007.293283.0433071.119486.091351.204348.1441315.254586.0527806.050238.1130046.075358.180672.075358.0324803 0 .0717274-.006789.1177413-.020367.1921754-.065174.3863808-.117449.5826163-.156825.1962354-.039376.3742007-.059064.5338957-.059064.2869098 0 .4872053.043449.6008866.130348.1136812.086899.1705218.22132.1705218.403264v.118128c-.4060044-.081467-.7890019-.122201-1.1489924-.122201-.4817919 0-.8566693.10455-1.1246322.31365s-.4019444.503741-.4019444.883923c0 .263411.0588707.492199.1766119.686364.1177413.194164.2875865.343521.5095356.448071.221949.10455.4858519.156825.7917085.156825zm.1299214-.859482c-.1813486 0-.3200668-.033266-.4161545-.099798s-.1441315-.163614-.1441315-.291247c0-.130348.0493972-.229467.1481916-.297356.0987944-.06789.2429259-.101835.4323947-.101835.3410437 0 .6902074.036661 1.0474913.109982v.260696c-.1596951.130348-.3308936.232861-.5135956.30754-.1827019.074678-.3674339.112018-.554196.112018zm4.1209447.769868c.0920276 0 .157665-.019688.1969121-.059064s.0588706-.105229.0588706-.197559v-1.384948c0-.380182.0372171-.669392.1116512-.867629.0744342-.198238.1752586-.297357.3024733-.297357.0730808 0 .126538.033945.1603717.101835.0338337.067889.0507506.173797.0507506.317723v2.130376c0 .09233.0196235.158183.0588706.197559s.1048845.059064.1969122.059064h.5034454c.0920277 0 .157665-.019688.1969121-.059064s.0588707-.105229.0588707-.197559v-1.384948c0-.380182.037217-.669392.1116512-.867629.0744341-.198238.1752585-.297357.3024733-.297357.0730808 0 .126538.033945.1603717.101835.0338337.067889.0507505.173797.0507505.317723v2.130376c0 .09233.0196236.158183.0588707.197559s.1048845.059064.1969121.059064h.5034455c.0920276 0 .157665-.019688.1969121-.059064s.0588706-.105229.0588706-.197559v-2.362559c0-.415484-.0717274-.725061-.2151823-.92873-.1434549-.203668-.3396903-.305503-.5887064-.305503-.1921754 0-.3708173.069927-.5359258.209779-.1651084.139853-.3099167.345558-.4344247.617117-.1163879-.551264-.3748774-.826896-.7754684-.826896-.2057089 0-.3945009.078752-.5663761.236256s-.3214201.389686-.4486349.696548v-.586567c0-.09233-.0196235-.158183-.0588706-.197559s-.1048845-.059064-.1969121-.059064h-.7064477c-.0649607 0-.1150346.011542-.1502216.034624-.035187.023083-.0615773.064495-.0791709.124238-.0175935.059743-.0263902.146642-.0263902.260696 0 .114055.0087967.200954.0263902.260696.0175936.059743.0439839.100477.0791709.122202.035187.021724.0852609.032587.1502216.032587h.2314225v2.672135c0 .09233.0196236.158183.0588707.197559s.1048844.059064.1969121.059064zm13.3616046 1.58047c.0649607 0 .1150346-.010862.1502216-.032587.0351871-.021725.0615774-.062458.0791709-.122201s.0263903-.146642.0263903-.260696c0-.114055-.0087968-.200954-.0263903-.260697-.0175935-.059742-.0439838-.101155-.0791709-.124238-.035187-.023082-.0852609-.034623-.1502216-.034623h-.3532238v-3.674186h.3532238c.0649607 0 .1150346-.010863.1502216-.032587.0351871-.021725.0615774-.062459.0791709-.122202.0175935-.059742.0263903-.146641.0263903-.260696 0-.114054-.0087968-.200953-.0263903-.260696s-.0439838-.101155-.0791709-.124238c-.035187-.023082-.0852609-.034624-.1502216-.034624h-.9500503c-.0920276 0-.157665.019688-.1969121.059064s-.0588707.105229-.0588707.197559v.342164c-.1407481-.217247-.3166834-.386292-.5278057-.507136-.2111223-.120843-.4452515-.181265-.7023876-.181265-.3545771 0-.6644938.086899-.92975.260696-.2652562.173798-.4682584.410054-.6090066.708768s-.2111223.632731-.2111223 1.002051c0 .369319.0703741.703336.2111223 1.00205.1407482.298715.3437504.534971.6090066.708768s.5751729.260696.92975.260696c.2111223 0 .4073578-.041413.5887064-.124238s.3410437-.201632.4790852-.35642v1.136472h-.6780274c-.0649607 0-.1150345.010862-.1502216.032587-.035187.021724-.0615773.062458-.0791708.122201-.0175936.059743-.0263903.146642-.0263903.260696 0 .114055.0087967.200954.0263903.260696.0175935.059743.0439838.101156.0791708.124238.0351871.023083.0852609.034624.1502216.034624zm-2.2736246-2.415512c-.1678152 0-.3139767-.042771-.4384848-.128312-.124508-.085541-.219919-.207063-.2862331-.364567-.066314-.157504-.099471-.342164-.099471-.553979 0-.211816.033157-.396476.099471-.55398.0663141-.157504.1617251-.279026.2862331-.364567.1245081-.085541.2706696-.128311.4384848-.128311.1732285 0 .3302169.040734.4709651.122201.1407482.081468.2530761.201632.3369836.360494.0839076.158862.1258614.346916.1258614.564163 0 .217246-.0419538.405301-.1258614.564162-.0839075.158862-.1962354.279027-.3369836.360494-.1407482.081468-.2977366.122202-.4709651.122202zm4.6771706.924656c.5359258 0 .9825307-.312292 1.3398145-.936877v.59064c0 .09233.0196236.158183.0588707.197559s.1048844.059064.1969121.059064h.9094498c.0649607 0 .1150346-.011541.1502217-.034624.035187-.023082.0615773-.064495.0791708-.124238s.0263903-.146641.0263903-.260696-.0087968-.200953-.0263903-.260696-.0439838-.100477-.0791708-.122201c-.0351871-.021725-.085261-.032587-.1502217-.032587h-.3126233v-2.672136c0-.09233-.0196236-.158183-.0588707-.197559s-.1048845-.059064-.1969121-.059064h-1.1936529c-.0649607 0-.1150346.010863-.1502217.032588-.035187.021724-.0615773.062458-.0791708.122201s-.0263903.146641-.0263903.260696c0 .114054.0087968.200953.0263903.260696s.0439838.101156.0791708.124238c.0351871.023083.085261.034624.1502217.034624h.4344247v.66396c0 .249834-.0426305.484732-.1278914.704694-.0852609.219963-.1982655.395797-.3390137.527503s-.2896165.197559-.4466048.197559c-.1705219 0-.2923232-.054312-.365404-.162936-.0730808-.108623-.1096212-.268842-.1096212-.480658v-2.028542c0-.09233-.0196235-.158183-.0588706-.197559s-.1048845-.059064-.1969121-.059064h-1.0718516c-.0649607 0-.1150346.010863-.1502217.032588-.035187.021724-.0615773.062458-.0791708.122201s-.0263903.146641-.0263903.260696c0 .114054.0087968.200953.0263903.260696s.0439838.101156.0791708.124238c.0351871.023083.085261.034624.1502217.034624h.3126233v1.690451c0 .268843.0500739.503062.1502217.702658.1001477.199595.2429259.353705.4283346.462328s.4012677.162935.647577.162935zm5.5460201-4.460348c.1894687 0 .3200668-.019688.3917942-.059064s.1075912-.105229.1075912-.197558v-.668034c0-.09233-.0385705-.158183-.1157113-.197559s-.2117989-.059064-.4039744-.059064c-.1894687 0-.3193901.019009-.3897642.057027s-.1055611.10455-.1055611.199596v.668034c0 .092329.0385704.158182.1157112.197558.0771409.039376.2104456.059064.3999144.059064zm1.6402577 4.370734c.0649607 0 .1150346-.010863.1502216-.032587.0351871-.021725.0615774-.062459.0791709-.122202.0175935-.059742.0263903-.146641.0263903-.260696 0-.114054-.0087968-.200953-.0263903-.260696s-.0439838-.101155-.0791709-.124238c-.035187-.023082-.0852609-.034623-.1502216-.034623h-1.1408723v-2.672136c0-.09233-.0196236-.158183-.0588707-.197559s-.1048844-.059064-.1969121-.059064h-1.6240176c-.0649607 0-.1150346.011542-.1502216.034624-.0351871.023083-.0615773.064495-.0791709.124238-.0175935.059743-.0263903.146642-.0263903.260696 0 .114055.0087968.200954.0263903.260696.0175936.059743.0439838.100477.0791709.122202.035187.021724.0852609.032587.1502216.032587h.8647894v2.093716h-1.108392c-.0649607 0-.1150346.011541-.1502216.034623-.0351871.023083-.0615774.064495-.0791709.124238s-.0263903.146642-.0263903.260696c0 .114055.0087968.200954.0263903.260696.0175935.059743.0439838.100477.0791709.122202.035187.021724.0852609.032587.1502216.032587zm3.5159981.089614c.3410437 0 .6326902-.050917.8749395-.152752.2422492-.101834.4263046-.247118.5521659-.435851.1258614-.188733.1887921-.41209.1887921-.67007 0-.263412-.0609007-.475228-.182702-.635447-.1218013-.16022-.2909698-.285137-.5075055-.374751-.1488683-.059743-.3065333-.10455-.4729951-.134421-.1664618-.029872-.3755541-.059743-.6272768-.089615-.2544294-.02444-.4344247-.050238-.5399859-.077394-.2002955-.04888-.3004432-.130348-.3004432-.244402 0-.095046.0453371-.171082.1360115-.228109.0906743-.057028.215859-.085541.375554-.085541.2706696 0 .5088589.035981.7145678.107944s.3884108.193485.5481059.364567c.0541339.057028.1529283.085541.2963832.085541.1326281 0 .2280391-.019688.2862331-.059064s.087291-.105229.087291-.197559v-.859482c0-.09233-.0365404-.158183-.1096212-.197559s-.1962355-.059064-.369464-.059064c-.1705219 0-.2889398.019688-.3552539.059064-.066314.039376-.0994711.105229-.0994711.197559v.040734c-.3166834-.198238-.6793806-.297357-1.0880917-.297357-.2787897 0-.5298358.046844-.7531382.140532-.2233024.093687-.398561.228788-.5257757.405301s-.190822.382897-.190822.619153c0 .445356.186762.771226.560286.97761.1596951.089615.3376603.155468.5338958.197559.1962355.042092.4310413.079431.7044176.112018.2463094.035303.4032977.059743.4709651.073321.1190946.027156.2090923.061101.2699929.101834.0609007.040734.091351.095046.091351.162935 0 .225394-.2165356.338091-.649607.338091-.2517227 0-.4831452-.039376-.6942675-.118128s-.3843508-.203669-.5196856-.374751c-.0595474-.076036-.1718752-.114054-.3369837-.114054-.1326281 0-.2307458.020366-.2943532.0611-.0636073.040734-.095411.105908-.095411.195522v.908363c0 .09233.0365404.158183.1096212.197559s.1962354.059064.369464.059064c.1732285 0 .2990899-.019688.3775841-.059064.0784941-.039376.1177412-.105229.1177412-.197559v-.032587c.3220969.192807.6712606.28921 1.0474914.28921zm10.7915968-.089614c.0649607 0 .1150346-.010863.1502216-.032587.0351871-.021725.0615774-.062459.0791709-.122202.0175935-.059742.0263903-.146641.0263903-.260696 0-.114054-.0087968-.200953-.0263903-.260696s-.0439838-.101155-.0791709-.124238c-.035187-.023082-.0852609-.034623-.1502216-.034623h-1.1652326v-.386971c0-.287852.0548106-.548548.1644318-.782089.1096212-.23354.2551061-.416842.4364547-.549906.1813486-.133063.3762307-.199595.5846463-.199595.1624018 0 .3193901.042092.4709651.126275.0433072.021724.0839076.032587.1218013.032587.0676674 0 .1319515-.03123.1928521-.093688.0609007-.062458.1157113-.154788.1644318-.27699.0487205-.122201.0730808-.228109.0730808-.317723 0-.14121-.0595473-.255265-.1786419-.342164-.2030022-.152072-.4195379-.228109-.6496071-.228109-.2706696 0-.5379558.106587-.8018586.31976-.2639029.213174-.4973554.51664-.7003576.9104v-.883923c0-.09233-.0196236-.158183-.0588707-.197559s-.1048844-.059064-.1969121-.059064h-1.112452c-.0649607 0-.1150346.011542-.1502217.034624-.035187.023083-.0615773.064495-.0791708.124238s-.0263903.146642-.0263903.260696c0 .114055.0087968.200954.0263903.260696.0175935.059743.0439838.100477.0791708.122202.0351871.021724.085261.032587.1502217.032587h.4750251v2.093716h-.5968265c-.0649607 0-.1150345.011541-.1502216.034623-.035187.023083-.0615773.064495-.0791708.124238-.0175936.059743-.0263903.146642-.0263903.260696 0 .114055.0087967.200954.0263903.260696.0175935.059743.0439838.100477.0791708.122202.0351871.021724.0852609.032587.1502216.032587zm3.9950833-4.370734c.1894687 0 .3200668-.019688.3917942-.059064s.1075912-.105229.1075912-.197558v-.668034c0-.09233-.0385705-.158183-.1157113-.197559s-.211799-.059064-.4039744-.059064c-.1894687 0-.3193901.019009-.3897642.057027s-.1055611.10455-.1055611.199596v.668034c0 .092329.0385704.158182.1157112.197558.0771409.039376.2104456.059064.3999144.059064zm1.6402577 4.370734c.0649607 0 .1150346-.010863.1502216-.032587.0351871-.021725.0615774-.062459.0791709-.122202.0175935-.059742.0263903-.146641.0263903-.260696 0-.114054-.0087968-.200953-.0263903-.260696s-.0439838-.101155-.0791709-.124238c-.035187-.023082-.0852609-.034623-.1502216-.034623h-1.1408723v-2.672136c0-.09233-.0196236-.158183-.0588707-.197559s-.1048844-.059064-.1969121-.059064h-1.6240176c-.0649607 0-.1150346.011542-.1502216.034624-.0351871.023083-.0615773.064495-.0791709.124238-.0175935.059743-.0263903.146642-.0263903.260696 0 .114055.0087968.200954.0263903.260696.0175936.059743.0439838.100477.0791709.122202.035187.021724.0852609.032587.1502216.032587h.8647894v2.093716h-1.108392c-.0649607 0-.1150346.011541-.1502217.034623-.035187.023083-.0615773.064495-.0791708.124238s-.0263903.146642-.0263903.260696c0 .114055.0087968.200954.0263903.260696.0175935.059743.0439838.100477.0791708.122202.0351871.021724.085261.032587.1502217.032587zm3.5159981.089614c.3410437 0 .6326902-.050917.8749394-.152752.2422493-.101834.4263047-.247118.552166-.435851.1258614-.188733.1887921-.41209.1887921-.67007 0-.263412-.0609007-.475228-.182702-.635447-.1218013-.16022-.2909698-.285137-.5075055-.374751-.1488683-.059743-.3065333-.10455-.4729951-.134421-.1664618-.029872-.3755541-.059743-.6272768-.089615-.2544294-.02444-.4344247-.050238-.5399859-.077394-.2002955-.04888-.3004432-.130348-.3004432-.244402 0-.095046.0453371-.171082.1360115-.228109.0906743-.057028.215859-.085541.375554-.085541.2706696 0 .5088589.035981.7145678.107944s.3884108.193485.5481059.364567c.0541339.057028.1529283.085541.2963832.085541.1326281 0 .2280391-.019688.2862331-.059064s.0872909-.105229.0872909-.197559v-.859482c0-.09233-.0365403-.158183-.1096211-.197559s-.1962355-.059064-.369464-.059064c-.1705219 0-.2889398.019688-.3552539.059064-.066314.039376-.0994711.105229-.0994711.197559v.040734c-.3166834-.198238-.6793807-.297357-1.0880917-.297357-.2787897 0-.5298358.046844-.7531382.140532-.2233024.093687-.398561.228788-.5257757.405301s-.1908221.382897-.1908221.619153c0 .445356.1867621.771226.5602861.97761.1596951.089615.3376603.155468.5338958.197559.1962354.042092.4310413.079431.7044176.112018.2463094.035303.4032977.059743.4709651.073321.1190946.027156.2090923.061101.2699929.101834.0609007.040734.091351.095046.091351.162935 0 .225394-.2165356.338091-.649607.338091-.2517227 0-.4831452-.039376-.6942675-.118128s-.3843508-.203669-.5196856-.374751c-.0595474-.076036-.1718752-.114054-.3369837-.114054-.1326281 0-.2307458.020366-.2943532.0611-.0636073.040734-.095411.105908-.095411.195522v.908363c0 .09233.0365404.158183.1096212.197559s.1962354.059064.369464.059064c.1732285 0 .2990899-.019688.3775841-.059064.0784941-.039376.1177412-.105229.1177412-.197559v-.032587c.3220969.192807.6712606.28921 1.0474914.28921zm4.254926 0c.5359258 0 .9825307-.312292 1.3398145-.936877v.59064c0 .09233.0196236.158183.0588707.197559s.1048844.059064.1969121.059064h.9094499c.0649607 0 .1150345-.011541.1502216-.034624.035187-.023082.0615773-.064495.0791708-.124238.0175936-.059743.0263903-.146641.0263903-.260696s-.0087967-.200953-.0263903-.260696c-.0175935-.059743-.0439838-.100477-.0791708-.122201-.0351871-.021725-.0852609-.032587-.1502216-.032587h-.3126234v-2.672136c0-.09233-.0196236-.158183-.0588707-.197559s-.1048844-.059064-.1969121-.059064h-1.1936529c-.0649607 0-.1150346.010863-.1502216.032588-.0351871.021724-.0615774.062458-.0791709.122201s-.0263903.146641-.0263903.260696c0 .114054.0087968.200953.0263903.260696s.0439838.101156.0791709.124238c.035187.023083.0852609.034624.1502216.034624h.4344247v.66396c0 .249834-.0426305.484732-.1278914.704694-.0852609.219963-.1982655.395797-.3390137.527503s-.2896164.197559-.4466048.197559c-.1705219 0-.2923232-.054312-.365404-.162936-.0730808-.108623-.1096211-.268842-.1096211-.480658v-2.028542c0-.09233-.0196236-.158183-.0588707-.197559s-.1048845-.059064-.1969121-.059064h-1.0718516c-.0649607 0-.1150346.010863-.1502216.032588-.0351871.021724-.0615774.062458-.0791709.122201s-.0263903.146641-.0263903.260696c0 .114054.0087968.200953.0263903.260696s.0439838.101156.0791709.124238c.035187.023083.0852609.034624.1502216.034624h.3126234v1.690451c0 .268843.0500738.503062.1502216.702658.1001477.199595.242926.353705.4283346.462328.1854087.108623.4012677.162935.647577.162935zm5.7165419 0c.3410437 0 .6326902-.050917.8749395-.152752.2422493-.101834.4263046-.247118.552166-.435851.1258613-.188733.188792-.41209.188792-.67007 0-.263412-.0609006-.475228-.182702-.635447-.1218013-.16022-.2909698-.285137-.5075055-.374751-.1488682-.059743-.3065333-.10455-.4729951-.134421-.1664618-.029872-.375554-.059743-.6272768-.089615-.2544294-.02444-.4344247-.050238-.5399858-.077394-.2002955-.04888-.3004433-.130348-.3004433-.244402 0-.095046.0453372-.171082.1360115-.228109.0906743-.057028.215859-.085541.3755541-.085541.2706696 0 .5088588.035981.7145677.107944s.3884109.193485.5481059.364567c.054134.057028.1529284.085541.2963833.085541.1326281 0 .2280391-.019688.286233-.059064.058194-.039376.087291-.105229.087291-.197559v-.859482c0-.09233-.0365404-.158183-.1096212-.197559s-.1962355-.059064-.369464-.059064c-.1705218 0-.2889398.019688-.3552538.059064-.0663141.039376-.0994711.105229-.0994711.197559v.040734c-.3166834-.198238-.6793807-.297357-1.0880918-.297357-.2787897 0-.5298357.046844-.7531381.140532-.2233025.093687-.398561.228788-.5257757.405301-.1272148.176513-.1908221.382897-.1908221.619153 0 .445356.186762.771226.5602861.97761.159695.089615.3376603.155468.5338957.197559.1962355.042092.4310414.079431.7044177.112018.2463093.035303.4032977.059743.4709651.073321.1190946.027156.2090922.061101.2699929.101834.0609006.040734.091351.095046.091351.162935 0 .225394-.2165357.338091-.6496071.338091-.2517227 0-.4831452-.039376-.6942675-.118128s-.3843508-.203669-.5196856-.374751c-.0595473-.076036-.1718752-.114054-.3369836-.114054-.1326281 0-.2307459.020366-.2943532.0611-.0636074.040734-.0954111.105908-.0954111.195522v.908363c0 .09233.0365404.158183.1096212.197559s.1962355.059064.369464.059064c.1732286 0 .2990899-.019688.3775841-.059064s.1177413-.105229.1177413-.197559v-.032587c.3220968.192807.6712606.28921 1.0474913.28921zm9.7522251 0c.27067 0 .546753-.025798.828249-.077394.281497-.051596.55758-.122201.828249-.211816.070375-.02444.121125-.056348.152252-.095724s.046691-.094367.046691-.164972-.013534-.156146-.040601-.256623c-.035187-.130348-.074434-.222677-.117741-.276989s-.094734-.081468-.154282-.081468c-.03248 0-.064961.005431-.097441.016294-.489912.149357-.944637.224036-1.364175.224036-.2598424 0-.4743481-.057707-.6435166-.173119s-.2794663-.281742-.3308936-.498989h2.6065482c.092028 0 .157665-.019009.196912-.057027s.058871-.103192.058871-.195522c0-.407338-.073758-.769189-.221273-1.085555s-.36608-.563484-.655697-.741355c-.289616-.17787-.640133-.266806-1.051551-.266806-.4087112 0-.765995.084183-1.0718517.25255-.3058566.168366-.5399858.401906-.7023876.70062-.1624017.298715-.2436026.638163-.2436026 1.018345 0 .382897.0778175.723024.2334525 1.020381.155635.297356.3823208.530217.6800574.698584.2977365.168366.6523137.252549 1.063731.252549zm.90945-2.391072h-1.786419c.1163879-.4182.4222446-.6273.91757-.6273.232776 0 .424275.05499.574496.164972.150222.109981.24834.26409.294353.462328zm3.889522 3.971542c.633367 0 1.109069-.145962 1.427106-.437888.318037-.291925.477055-.704015.477055-1.23627v-2.924684h.353224c.064961 0 .115034-.010863.150222-.032587.035187-.021725.061577-.062459.07917-.122202.017594-.059742.026391-.146641.026391-.260696 0-.114054-.008797-.200953-.026391-.260696-.017593-.059743-.043983-.101155-.07917-.124238-.035188-.023082-.085261-.034624-.150222-.034624h-.95005c-.092028 0-.157665.019688-.196913.059064-.039247.039376-.05887.105229-.05887.197559v.285137c-.140748-.203669-.316684-.359815-.527806-.468439-.211122-.108623-.445251-.162935-.702387-.162935-.349164 0-.656374.082147-.92163.24644-.265257.164292-.469612.391044-.613067.680253-.143455.28921-.215182.617117-.215182.983721s.071727.694511.215182.983721c.143455.289209.34781.515961.613067.680253.265256.164293.572466.24644.92163.24644.211122 0 .407357-.040734.588706-.122202.181349-.081467.341044-.196879.479085-.346237v.415485c0 .279705-.073081.488126-.219242.625263-.146162.137137-.382998.205706-.710508.205706-.313977 0-.729455-.08011-1.246433-.240329-.029774-.010863-.062254-.016294-.097442-.016294-.067667 0-.126538.028514-.176611.085541-.050074.057027-.095411.149357-.136012.27699-.035187.124916-.05278.219962-.05278.285136 0 .146642.06496.240329.194882.281063.251722.078752.515625.140532.791708.185339s.530513.06721.763288.06721zm-.01624-2.627328c-.251722 0-.452018-.08622-.600886-.258659-.148869-.17244-.223303-.414806-.223303-.727098s.074434-.554658.223303-.727098c.148868-.172439.349164-.258659.600886-.258659.173229 0 .330894.037339.472995.112018.142102.074678.25443.186017.336984.334017.082554.147999.123831.327906.123831.539722s-.041277.391723-.123831.539722c-.082554.148-.194882.259339-.336984.334017-.142101.074679-.299766.112018-.472995.112018zm5.188736 1.046858c.27067 0 .546753-.025798.828249-.077394.281497-.051596.55758-.122201.828249-.211816.070374-.02444.121125-.056348.152252-.095724s.046691-.094367.046691-.164972-.013534-.156146-.040601-.256623c-.035187-.130348-.074434-.222677-.117741-.276989s-.094735-.081468-.154282-.081468c-.03248 0-.064961.005431-.097441.016294-.489912.149357-.944637.224036-1.364175.224036-.259842 0-.474348-.057707-.643517-.173119-.169168-.115412-.279466-.281742-.330893-.498989h2.606548c.092028 0 .157665-.019009.196912-.057027s.058871-.103192.058871-.195522c0-.407338-.073758-.769189-.221273-1.085555s-.36608-.563484-.655697-.741355c-.289616-.17787-.640133-.266806-1.051551-.266806-.408711 0-.765995.084183-1.071852.25255-.305856.168366-.539986.401906-.702387.70062-.162402.298715-.243603.638163-.243603 1.018345 0 .382897.077818.723024.233453 1.020381.155635.297356.38232.530217.680057.698584.297736.168366.652314.252549 1.063731.252549zm.90945-2.391072h-1.786419c.116388-.4182.422245-.6273.91757-.6273.232776 0 .424274.05499.574496.164972.150222.109981.248339.26409.294353.462328zm4.449808 2.391072c.408712 0 .891857-.14121 1.449436-.423631.056841-.029872.099471-.064495.127892-.103871.02842-.039376.04263-.088936.04263-.148678 0-.076037-.02436-.175156-.073081-.297357-.043307-.108623-.089321-.186696-.138041-.234219-.048721-.047523-.101501-.071284-.158342-.071284-.035187 0-.082554.01222-.142102.03666-.221949.100477-.416154.17855-.582616.234219-.166462.05567-.311947.083505-.436455.083505-.349163 0-.523745-.225394-.523745-.676181v-1.132399h1.506276c.094734 0 .161048-.03055.198942-.091651.037894-.0611.056841-.175834.056841-.3442s-.018947-.283779-.056841-.346237c-.037894-.062459-.104208-.093688-.198942-.093688h-1.506276v-1.148692c0-.065174-.013534-.115413-.040601-.150715-.027067-.035303-.07511-.06178-.144131-.079431s-.167139-.026477-.294353-.026477c-.192176 0-.329541.019688-.412095.059064s-.123831.105229-.123831.197559v1.148692h-.783589c-.094734 0-.161048.031229-.198942.093688-.037894.062458-.05684.177871-.05684.346237s.018946.2831.05684.3442c.037894.061101.104208.091651.198942.091651h.783589v1.185353c0 .505099.123831.889354.371494 1.152766.247662.263411.606976.395117 1.077941.395117zm-105.58550257 11.679187c.53592577 0 .98253067-.312293 1.33981447-.936877v.59064c0 .092329.0196236.158182.0588707.197558s.1048844.059064.1969121.059064h.9094498c.0649607 0 .1150346-.011541.1502217-.034623.035187-.023083.0615773-.064496.0791708-.124238.0175936-.059743.0263903-.146642.0263903-.260697 0-.114054-.0087967-.200953-.0263903-.260696-.0175935-.059743-.0439838-.100476-.0791708-.122201-.0351871-.021725-.085261-.032587-.1502217-.032587h-.3126233v-2.672135c0-.09233-.0196236-.158183-.0588707-.197559s-.1048844-.059064-.1969121-.059064h-1.1936529c-.0649607 0-.1150346.010862-.1502217.032587-.035187.021725-.0615773.062458-.0791708.122201s-.0263903.146642-.0263903.260696c0 .114055.0087968.200954.0263903.260697.0175935.059742.0439838.101155.0791708.124238.0351871.023082.085261.034623.1502217.034623h.4344247v.663961c0 .249833-.0426305.484732-.1278914.704694s-.1982655.395796-.3390137.527502-.2896164.197559-.4466048.197559c-.17052186 0-.29232318-.054312-.36540397-.162935s-.10962119-.268843-.10962119-.480659v-2.028541c0-.09233-.01962354-.158183-.05887064-.197559-.03924709-.039376-.10488446-.059064-.19691213-.059064h-1.0718516c-.0649607 0-.11503458.010862-.15022163.032587-.03518704.021725-.06157733.062458-.07917085.122201-.01759353.059743-.02639029.146642-.02639029.260696 0 .114055.00879676.200954.02639029.260697.01759352.059742.04398381.101155.07917085.124238.03518705.023082.08526093.034623.15022163.034623h.31262338v1.690452c0 .268843.05007388.503062.15022163.702657.10014775.199596.24292596.353705.42833464.462328.18540867.108624.40126767.162936.64757701.162936zm6.53667077-.089615c.0649607 0 .1150346-.010862.1502216-.032587.0351871-.021724.0615774-.062458.0791709-.122201s.0263903-.146642.0263903-.260696c0-.114055-.0087968-.200953-.0263903-.260696s-.0439838-.101156-.0791709-.124238c-.035187-.023083-.0852609-.034624-.1502216-.034624h-1.1652326v-.386971c0-.287852.0548106-.548548.1644318-.782088.1096211-.23354.2551061-.416842.4364547-.549906s.3762307-.199596.5846463-.199596c.1624018 0 .3193901.042092.4709651.126275.0433071.021725.0839076.032587.1218013.032587.0676674 0 .1319515-.031229.1928521-.093688.0609007-.062458.1157113-.154788.1644318-.276989s.0730808-.228109.0730808-.317724c0-.14121-.0595473-.255265-.1786419-.342163-.2030022-.152073-.4195379-.228109-.6496071-.228109-.2706696 0-.5379558.106586-.8018587.31976-.2639028.213173-.4973553.51664-.7003575.910399v-.883922c0-.09233-.0196236-.158183-.0588707-.197559s-.1048844-.059064-.1969121-.059064h-1.1124521c-.0649607 0-.1150345.011541-.1502216.034624-.035187.023082-.0615773.064495-.0791708.124238-.0175936.059743-.0263903.146641-.0263903.260696 0 .114054.0087967.200953.0263903.260696.0175935.059743.0439838.100477.0791708.122201.0351871.021725.0852609.032587.1502216.032587h.4750252v2.093716h-.5968265c-.0649607 0-.1150346.011541-.1502216.034624-.035187.023082-.0615773.064495-.0791709.124238-.0175935.059743-.0263902.146641-.0263902.260696 0 .114054.0087967.200953.0263902.260696.0175936.059743.0439839.100477.0791709.122201.035187.021725.0852609.032587.1502216.032587zm3.5241181 0c.0649607 0 .1150346-.010862.1502217-.032587.035187-.021724.0615773-.062458.0791708-.122201s.0263903-.146642.0263903-.260696c0-.114055-.0087968-.200953-.0263903-.260696s-.0439838-.101156-.0791708-.124238c-.0351871-.023083-.085261-.034624-.1502217-.034624h-.190822v-.66396c0-.249834.0426304-.484732.1278914-.704695.0852609-.219962.1982654-.395796.3390136-.527502s.2896165-.197559.4466049-.197559c.1705218 0 .2923231.054312.3654039.162935.0730808.108624.1096212.268843.1096212.480659v1.450122h-.1908221c-.0649607 0-.1150345.011541-.1502216.034624-.035187.023082-.0615773.064495-.0791708.124238-.0175936.059743-.0263903.146641-.0263903.260696 0 .114054.0087967.200953.0263903.260696.0175935.059743.0439838.100477.0791708.122201.0351871.021725.0852609.032587.1502216.032587h1.5184565c.0649607 0 .1150346-.010862.1502216-.032587.0351871-.021724.0615773-.062458.0791709-.122201.0175935-.059743.0263902-.146642.0263902-.260696 0-.114055-.0087967-.200953-.0263902-.260696-.0175936-.059743-.0439838-.101156-.0791709-.124238-.035187-.023083-.0852609-.034624-.1502216-.034624h-.3126234v-1.690451c0-.268843-.0500739-.503063-.1502216-.702658-.1001478-.199595-.242926-.353705-.4283347-.462328-.1854086-.108624-.4012676-.162935-.647577-.162935-.5359258 0-.9825306.312292-1.3398145.936876v-.590639c0-.09233-.0196235-.158183-.0588706-.197559s-.1048845-.059064-.1969122-.059064h-.9906507c-.0649607 0-.1150346.011541-.1502216.034624-.035187.023082-.0615773.064495-.0791709.124238-.0175935.059743-.0263902.146641-.0263902.260696 0 .114054.0087967.200953.0263902.260696.0175936.059743.0439839.100477.0791709.122201.035187.021725.0852609.032587.1502216.032587h.3938243v2.093716h-.3126234c-.0649607 0-.1150346.011541-.1502216.034624-.0351871.023082-.0615774.064495-.0791709.124238s-.0263903.146641-.0263903.260696c0 .114054.0087968.200953.0263903.260696s.0439838.100477.0791709.122201c.035187.021725.0852609.032587.1502216.032587zm4.8233323.089615c.2517227 0 .4966787-.045486.7348679-.136459.2381893-.090972.4641984-.219283.6780274-.384934.0676674.149357.1657851.25866.2943531.327907.1285681.069248.2767597.103871.4445749.103871h.4547249c.0649607 0 .1150346-.010862.1502216-.032587.035187-.021724.0615773-.062458.0791709-.122201.0175935-.059743.0263902-.146642.0263902-.260696 0-.114055-.0087967-.200953-.0263902-.260696-.0175936-.059743-.0439839-.101156-.0791709-.124238-.035187-.023083-.0852609-.034624-.1502216-.034624h-.1258614c-.0866143 0-.1529283-.03055-.1989421-.091651-.0460139-.061101-.0690208-.145963-.0690208-.254586v-1.177206c0-.480658-.1326281-.849978-.3978843-1.107959-.2652562-.25798-.6956209-.38697-1.291094-.38697-.2381892 0-.4926186.021724-.7632882.065174-.2706696.043449-.5264524.108623-.7673483.195522-.1245081.046165-.1867621.138495-.1867621.276989 0 .076037.0203003.173798.0609007.293284.0433071.119485.091351.204347.1441316.254586.0527805.050238.1130045.075357.1806719.075357.0324804 0 .0717275-.006789.1177413-.020367.1921754-.065174.3863808-.117449.5826163-.156825s.3742007-.059064.5338958-.059064c.2869097 0 .4872052.04345.6008865.130348.1136812.086899.1705218.22132.1705218.403265v.118128c-.4060044-.081468-.7890019-.122202-1.1489924-.122202-.4817919 0-.8566693.10455-1.1246322.31365s-.4019443.503741-.4019443.883923c0 .263412.0588706.4922.1766119.686364.1177412.194164.2875864.343522.5095355.448072s.4858519.156825.7917086.156825zm.1299214-.859483c-.1813487 0-.3200668-.033266-.4161545-.099798s-.1441316-.163614-.1441316-.291246c0-.130348.0493972-.229467.1481916-.297357.0987944-.067889.242926-.101834.4323947-.101834.3410437 0 .6902075.03666 1.0474913.109981v.260696c-.159695.130348-.3308936.232862-.5135955.30754-.182702.074679-.367434.112018-.554196.112018zm9.1066786.769868c.0920276 0 .157665-.019688.1969121-.059064s.0588706-.105229.0588706-.197558v-1.384949c0-.380182.0372171-.669391.1116512-.867629.0744342-.198238.1752586-.297356.3024733-.297356.0730808 0 .126538.033944.1603717.101834s.0507506.173797.0507506.317723v2.130377c0 .092329.0196235.158182.0588706.197558s.1048845.059064.1969122.059064h.5034454c.0920277 0 .157665-.019688.1969121-.059064s.0588707-.105229.0588707-.197558v-1.384949c0-.380182.037217-.669391.1116512-.867629.0744341-.198238.1752585-.297356.3024733-.297356.0730808 0 .126538.033944.1603717.101834s.0507505.173797.0507505.317723v2.130377c0 .092329.0196236.158182.0588707.197558s.1048845.059064.1969121.059064h.5034455c.0920276 0 .157665-.019688.1969121-.059064s.0588706-.105229.0588706-.197558v-2.362559c0-.415485-.0717274-.725061-.2151823-.92873s-.3396903-.305503-.5887064-.305503c-.1921754 0-.3708173.069926-.5359258.209779-.1651084.139852-.3099167.345558-.4344247.617116-.1163879-.551264-.3748774-.826895-.7754684-.826895-.2057089 0-.3945009.078752-.5663761.236256-.1718752.157503-.3214201.389686-.4486349.696547v-.586566c0-.09233-.0196235-.158183-.0588706-.197559s-.1048845-.059064-.1969121-.059064h-.7064477c-.0649607 0-.1150346.011541-.1502216.034624-.035187.023082-.0615773.064495-.0791709.124238-.0175935.059743-.0263902.146641-.0263902.260696 0 .114054.0087967.200953.0263902.260696.0175936.059743.0439839.100477.0791709.122201.035187.021725.0852609.032587.1502216.032587h.2314225v2.672136c0 .092329.0196236.158182.0588707.197558s.1048844.059064.1969121.059064zm6.289008.089615c.4114178 0 .7714084-.084184 1.0799717-.25255.3085634-.168366.5460759-.401906.7125377-.700621.1664618-.298714.2496927-.638162.2496927-1.018344s-.0832309-.71963-.2496927-1.018344-.4039743-.532255-.7125377-.700621c-.3085633-.168366-.6685539-.252549-1.0799717-.252549s-.7714083.084183-1.0799717.252549c-.3085633.168366-.5460759.401907-.7125377.700621s-.2496927.638162-.2496927 1.018344.0832309.71963.2496927 1.018344c.1664618.298715.4039744.532255.7125377.700621.3085634.168366.6685539.25255 1.0799717.25255zm0-.924657c-.1948821 0-.3640506-.04277-.5075055-.128311-.1434548-.085541-.2537527-.207064-.3308935-.364568-.0771409-.157504-.1157113-.342163-.1157113-.553979s.0385704-.396475.1157113-.553979c.0771408-.157504.1874387-.279026.3308935-.364567.1434549-.085541.3126234-.128312.5075055-.128312s.3640506.042771.5075055.128312.2537528.207063.3308936.364567.1157113.342163.1157113.553979-.0385705.396475-.1157113.553979-.1874387.279027-.3308936.364568-.3126234.128311-.5075055.128311zm6.650352.835042c.0649607 0 .1150346-.010862.1502217-.032587.035187-.021724.0615773-.062458.0791708-.122201s.0263903-.146642.0263903-.260696c0-.114055-.0087968-.200953-.0263903-.260696s-.0439838-.101156-.0791708-.124238c-.0351871-.023083-.085261-.034624-.1502217-.034624h-1.1408723v-4.252606c0-.092329-.0196236-.158182-.0588707-.197558s-.1048844-.059064-.1969121-.059064h-1.7052185c-.0649607 0-.1150345.011541-.1502216.034623-.035187.023083-.0615773.064496-.0791708.124238-.0175936.059743-.0263903.146642-.0263903.260697 0 .114054.0087967.200953.0263903.260696.0175935.059742.0439838.100476.0791708.122201.0351871.021725.0852609.032587.1502216.032587h.9459903v3.674186h-1.108392c-.0649607 0-.1150346.011541-.1502216.034624-.0351871.023082-.0615774.064495-.0791709.124238s-.0263903.146641-.0263903.260696c0 .114054.0087968.200953.0263903.260696s.0439838.100477.0791709.122201c.035187.021725.0852609.032587.1502216.032587zm4.985734 0c.0649607 0 .1150346-.010862.1502216-.032587.0351871-.021724.0615774-.062458.0791709-.122201s.0263903-.146642.0263903-.260696c0-.114055-.0087968-.200953-.0263903-.260696s-.0439838-.101156-.0791709-.124238c-.035187-.023083-.0852609-.034624-.1502216-.034624h-1.1408723v-4.252606c0-.092329-.0196236-.158182-.0588707-.197558s-.1048845-.059064-.1969121-.059064h-1.7052185c-.0649607 0-.1150346.011541-.1502216.034623-.0351871.023083-.0615773.064496-.0791709.124238-.0175935.059743-.0263902.146642-.0263902.260697 0 .114054.0087967.200953.0263902.260696.0175936.059742.0439838.100476.0791709.122201.035187.021725.0852609.032587.1502216.032587h.9459903v3.674186h-1.108392c-.0649607 0-.1150346.011541-.1502217.034624-.035187.023082-.0615773.064495-.0791708.124238s-.0263903.146641-.0263903.260696c0 .114054.0087968.200953.0263903.260696s.0439838.100477.0791708.122201c.0351871.021725.085261.032587.1502217.032587zm3.3860767-4.370733c.1894687 0 .3200668-.019688.3917942-.059064s.1075912-.105229.1075912-.197559v-.668034c0-.09233-.0385705-.158183-.1157113-.197559s-.2117989-.059064-.4039744-.059064c-.1894687 0-.3193901.01901-.3897642.057028s-.1055611.10455-.1055611.199595v.668034c0 .09233.0385704.158183.1157112.197559.0771409.039376.2104456.059064.3999144.059064zm1.6402577 4.370733c.0649607 0 .1150346-.010862.1502216-.032587.0351871-.021724.0615774-.062458.0791709-.122201s.0263903-.146642.0263903-.260696c0-.114055-.0087968-.200953-.0263903-.260696s-.0439838-.101156-.0791709-.124238c-.035187-.023083-.0852609-.034624-.1502216-.034624h-1.1408723v-2.672135c0-.09233-.0196236-.158183-.0588707-.197559s-.1048844-.059064-.1969121-.059064h-1.6240176c-.0649607 0-.1150346.011541-.1502216.034624-.0351871.023082-.0615773.064495-.0791709.124238-.0175935.059743-.0263903.146641-.0263903.260696 0 .114054.0087968.200953.0263903.260696.0175936.059743.0439838.100477.0791709.122201.035187.021725.0852609.032587.1502216.032587h.8647894v2.093716h-1.108392c-.0649607 0-.1150346.011541-.1502216.034624-.0351871.023082-.0615774.064495-.0791709.124238s-.0263903.146641-.0263903.260696c0 .114054.0087968.200953.0263903.260696s.0439838.100477.0791709.122201c.035187.021725.0852609.032587.1502216.032587zm3.5159981.089615c.3410437 0 .6326902-.050918.8749395-.152752.2422492-.101835.4263046-.247118.5521659-.435851.1258614-.188734.1887921-.41209.1887921-.670071 0-.263412-.0609007-.475227-.182702-.635447-.1218013-.160219-.2909698-.285136-.5075055-.37475-.1488683-.059743-.3065333-.10455-.4729951-.134422-.1664618-.029871-.3755541-.059743-.6272768-.089614-.2544294-.02444-.4344247-.050238-.5399859-.077394-.2002955-.048881-.3004432-.130348-.3004432-.244403 0-.095045.0453371-.171082.1360115-.228109.0906743-.057027.215859-.085541.375554-.085541.2706696 0 .5088589.035982.7145678.107945s.3884108.193485.5481059.364567c.0541339.057027.1529283.085541.2963832.085541.1326281 0 .2280391-.019688.2862331-.059064s.087291-.105229.087291-.197559v-.859483c0-.092329-.0365404-.158182-.1096212-.197558s-.1962355-.059064-.369464-.059064c-.1705219 0-.2889398.019688-.3552539.059064-.066314.039376-.0994711.105229-.0994711.197558v.040734c-.3166834-.198238-.6793806-.297356-1.0880917-.297356-.2787897 0-.5298358.046843-.7531382.140531s-.398561.228788-.5257757.405301-.190822.382898-.190822.619153c0 .445356.186762.771226.560286.977611.1596951.089614.3376603.155467.5338958.197559.1962355.042091.4310413.079431.7044176.112018.2463094.035302.4032977.059742.4709651.07332.1190946.027156.2090923.061101.2699929.101835.0609007.040734.091351.095045.091351.162935 0 .225393-.2165356.33809-.649607.33809-.2517227 0-.4831452-.039376-.6942675-.118128s-.3843508-.203669-.5196856-.37475c-.0595474-.076037-.1718752-.114055-.3369837-.114055-.1326281 0-.2307458.020367-.2943532.061101-.0636073.040733-.095411.105907-.095411.195522v.908363c0 .09233.0365404.158183.1096212.197559s.1962354.059064.369464.059064c.1732285 0 .2990899-.019688.3775841-.059064.0784941-.039376.1177412-.105229.1177412-.197559v-.032587c.3220969.192806.6712606.28921 1.0474914.28921zm9.7359854 0c.4114178 0 .7714083-.084184 1.0799717-.25255.3085633-.168366.5460759-.401906.7125377-.700621.1664618-.298714.2496927-.638162.2496927-1.018344s-.0832309-.71963-.2496927-1.018344-.4039744-.532255-.7125377-.700621c-.3085634-.168366-.6685539-.252549-1.0799717-.252549s-.7714084.084183-1.0799717.252549c-.3085634.168366-.5460759.401907-.7125377.700621s-.2496927.638162-.2496927 1.018344.0832309.71963.2496927 1.018344c.1664618.298715.4039743.532255.7125377.700621.3085633.168366.6685539.25255 1.0799717.25255zm0-.924657c-.1948821 0-.3640506-.04277-.5075055-.128311s-.2537528-.207064-.3308936-.364568-.1157113-.342163-.1157113-.553979.0385705-.396475.1157113-.553979.1874387-.279026.3308936-.364567.3126234-.128312.5075055-.128312.3640506.042771.5075055.128312.2537527.207063.3308936.364567c.0771408.157504.1157112.342163.1157112.553979s-.0385704.396475-.1157112.553979c-.0771409.157504-.1874387.279027-.3308936.364568s-.3126234.128311-.5075055.128311zm6.0413454.835042c.0649607 0 .1150346-.010862.1502216-.032587.0351871-.021724.0615773-.062458.0791709-.122201.0175935-.059743.0263902-.146642.0263902-.260696 0-.114055-.0087967-.200953-.0263902-.260696-.0175936-.059743-.0439838-.101156-.0791709-.124238-.035187-.023083-.0852609-.034624-.1502216-.034624h-1.1652326v-.386971c0-.287852.0548106-.548548.1644317-.782088.1096212-.23354.2551061-.416842.4364548-.549906.1813486-.133064.3762307-.199596.5846463-.199596.1624018 0 .3193901.042092.4709651.126275.0433071.021725.0839076.032587.1218013.032587.0676674 0 .1319514-.031229.1928521-.093688.0609007-.062458.1157113-.154788.1644318-.276989s.0730808-.228109.0730808-.317724c0-.14121-.0595473-.255265-.178642-.342163-.2030022-.152073-.4195378-.228109-.649607-.228109-.2706696 0-.5379558.106586-.8018587.31976-.2639028.213173-.4973554.51664-.7003576.910399v-.883922c0-.09233-.0196235-.158183-.0588706-.197559s-.1048845-.059064-.1969121-.059064h-1.1124521c-.0649607 0-.1150345.011541-.1502216.034624-.035187.023082-.0615773.064495-.0791708.124238-.0175936.059743-.0263903.146641-.0263903.260696 0 .114054.0087967.200953.0263903.260696.0175935.059743.0439838.100477.0791708.122201.0351871.021725.0852609.032587.1502216.032587h.4750252v2.093716h-.5968265c-.0649607 0-.1150346.011541-.1502216.034624-.0351871.023082-.0615773.064495-.0791709.124238-.0175935.059743-.0263903.146641-.0263903.260696 0 .114054.0087968.200953.0263903.260696.0175936.059743.0439838.100477.0791709.122201.035187.021725.0852609.032587.1502216.032587zm3.5241181 0c.0649607 0 .1150346-.010862.1502217-.032587.035187-.021724.0615773-.062458.0791708-.122201s.0263903-.146642.0263903-.260696c0-.114055-.0087968-.200953-.0263903-.260696s-.0439838-.101156-.0791708-.124238c-.0351871-.023083-.085261-.034624-.1502217-.034624h-.190822v-.66396c0-.249834.0426304-.484732.1278913-.704695.085261-.219962.1982655-.395796.3390137-.527502s.2896165-.197559.4466049-.197559c.1705218 0 .2923231.054312.3654039.162935.0730808.108624.1096212.268843.1096212.480659v1.450122h-.1908221c-.0649607 0-.1150345.011541-.1502216.034624-.035187.023082-.0615773.064495-.0791709.124238-.0175935.059743-.0263902.146641-.0263902.260696 0 .114054.0087967.200953.0263902.260696.0175936.059743.0439839.100477.0791709.122201.0351871.021725.0852609.032587.1502216.032587h1.5184565c.0649607 0 .1150345-.010862.1502216-.032587.035187-.021724.0615773-.062458.0791709-.122201.0175935-.059743.0263902-.146642.0263902-.260696 0-.114055-.0087967-.200953-.0263902-.260696-.0175936-.059743-.0439839-.101156-.0791709-.124238-.0351871-.023083-.0852609-.034624-.1502216-.034624h-.3126234v-1.690451c0-.268843-.0500739-.503063-.1502216-.702658-.1001478-.199595-.242926-.353705-.4283347-.462328-.1854087-.108624-.4012677-.162935-.647577-.162935-.5359258 0-.9825306.312292-1.3398145.936876v-.590639c0-.09233-.0196235-.158183-.0588706-.197559s-.1048845-.059064-.1969122-.059064h-.9906507c-.0649607 0-.1150346.011541-.1502216.034624-.0351871.023082-.0615773.064495-.0791709.124238-.0175935.059743-.0263903.146641-.0263903.260696 0 .114054.0087968.200953.0263903.260696.0175936.059743.0439838.100477.0791709.122201.035187.021725.0852609.032587.1502216.032587h.3938243v2.093716h-.3126234c-.0649607 0-.1150346.011541-.1502216.034624-.0351871.023082-.0615774.064495-.0791709.124238s-.0263903.146641-.0263903.260696c0 .114054.0087968.200953.0263903.260696s.0439838.100477.0791709.122201c.035187.021725.0852609.032587.1502216.032587zm4.8233322.089615c.2517228 0 .4966788-.045486.734868-.136459.2381892-.090972.4641984-.219283.6780273-.384934.0676674.149357.1657852.25866.2943532.327907.1285681.069248.2767597.103871.4445748.103871h.454725c.0649607 0 .1150345-.010862.1502216-.032587.035187-.021724.0615773-.062458.0791708-.122201.0175936-.059743.0263903-.146642.0263903-.260696 0-.114055-.0087967-.200953-.0263903-.260696-.0175935-.059743-.0439838-.101156-.0791708-.124238-.0351871-.023083-.0852609-.034624-.1502216-.034624h-.1258614c-.0866143 0-.1529283-.03055-.1989422-.091651-.0460138-.061101-.0690207-.145963-.0690207-.254586v-1.177206c0-.480658-.1326281-.849978-.3978843-1.107959-.2652562-.25798-.6956209-.38697-1.291094-.38697-.2381892 0-.4926187.021724-.7632882.065174-.2706696.043449-.5264524.108623-.7673484.195522-.124508.046165-.186762.138495-.186762.276989 0 .076037.0203002.173798.0609007.293284.0433071.119485.091351.204347.1441315.254586.0527806.050238.1130046.075357.180672.075357.0324804 0 .0717274-.006789.1177413-.020367.1921754-.065174.3863808-.117449.5826163-.156825.1962354-.039376.3742007-.059064.5338958-.059064.2869097 0 .4872052.04345.6008865.130348.1136812.086899.1705218.22132.1705218.403265v.118128c-.4060044-.081468-.7890019-.122202-1.1489924-.122202-.4817919 0-.8566693.10455-1.1246322.31365s-.4019444.503741-.4019444.883923c0 .263412.0588707.4922.176612.686364.1177412.194164.2875864.343522.5095355.448072.221949.10455.4858519.156825.7917085.156825zm.1299215-.859483c-.1813487 0-.3200668-.033266-.4161546-.099798-.0960877-.066532-.1441315-.163614-.1441315-.291246 0-.130348.0493972-.229467.1481916-.297357.0987944-.067889.242926-.101834.4323947-.101834.3410437 0 .6902074.03666 1.0474913.109981v.260696c-.1596951.130348-.3308936.232862-.5135955.30754-.182702.074679-.367434.112018-.554196.112018zm6.4798301.769868c.0649607 0 .1150346-.010862.1502216-.032587.0351871-.021724.0615774-.062458.0791709-.122201s.0263903-.146642.0263903-.260696c0-.114055-.0087968-.200953-.0263903-.260696s-.0439838-.101156-.0791709-.124238c-.035187-.023083-.0852609-.034624-.1502216-.034624h-1.1652326v-.386971c0-.287852.0548106-.548548.1644318-.782088s.2551061-.416842.4364547-.549906.3762307-.199596.5846463-.199596c.1624018 0 .3193901.042092.4709651.126275.0433072.021725.0839076.032587.1218013.032587.0676674 0 .1319515-.031229.1928521-.093688.0609007-.062458.1157113-.154788.1644318-.276989s.0730808-.228109.0730808-.317724c0-.14121-.0595473-.255265-.1786419-.342163-.2030022-.152073-.4195379-.228109-.6496071-.228109-.2706696 0-.5379558.106586-.8018587.31976-.2639028.213173-.4973553.51664-.7003575.910399v-.883922c0-.09233-.0196236-.158183-.0588707-.197559s-.1048844-.059064-.1969121-.059064h-1.112452c-.0649607 0-.1150346.011541-.1502217.034624-.035187.023082-.0615773.064495-.0791708.124238-.0175936.059743-.0263903.146641-.0263903.260696 0 .114054.0087967.200953.0263903.260696.0175935.059743.0439838.100477.0791708.122201.0351871.021725.085261.032587.1502217.032587h.4750251v2.093716h-.5968265c-.0649607 0-.1150345.011541-.1502216.034624-.035187.023082-.0615773.064495-.0791708.124238-.0175936.059743-.0263903.146641-.0263903.260696 0 .114054.0087967.200953.0263903.260696.0175935.059743.0439838.100477.0791708.122201.0351871.021725.0852609.032587.1502216.032587zm3.9463627.089615c.2706696 0 .5467526-.025799.828249-.077395s.5575794-.122201.828249-.211815c.0703741-.02444.1211246-.056349.1522516-.095725s.0466905-.094366.0466905-.164971c0-.070606-.0135335-.156146-.0406004-.256623-.0351871-.130348-.0744342-.222678-.1177413-.27699-.0433071-.054311-.0947344-.081467-.1542817-.081467-.0324803 0-.0649607.005431-.097441.016293-.489912.149357-.9446369.224036-1.3641748.224036-.2598428 0-.4743485-.057706-.643517-.173119-.1691685-.115412-.2794663-.281741-.3308935-.498988h2.6065482c.0920276 0 .157665-.019009.1969121-.057027.0392471-.038019.0588706-.103193.0588706-.195523 0-.407337-.0737574-.769189-.2212724-1.085555-.1475149-.316365-.3660806-.563483-.6556971-.741354-.2896164-.177871-.6401336-.266806-1.0515513-.266806-.4087111 0-.765995.084183-1.0718516.252549-.3058567.168366-.5399859.401907-.7023876.700621-.1624018.298714-.2436027.638162-.2436027 1.018344 0 .382898.0778175.723025.2334525 1.020381.1556351.297357.3823209.530218.6800574.698584.2977366.168366.6523137.25255 1.0637315.25255zm.9094499-2.391073h-1.7864194c.116388-.4182.4222446-.6273.91757-.6273.2327758 0 .4242746.054991.5744962.164972s.2483393.264091.2943532.462328zm9.0335976 2.391073c.189469 0 .330217-.020367.422245-.061101.092027-.040734.158341-.108623.198942-.203669l1.189593-2.753603h.276083c.06496 0 .115034-.010862.150221-.032587.035187-.021724.061578-.062458.079171-.122201.017594-.059743.026391-.146642.026391-.260696 0-.114055-.008797-.200953-.026391-.260696-.017593-.059743-.043984-.101156-.079171-.124238-.035187-.023083-.085261-.034624-.150221-.034624h-1.559057c-.064961 0-.115035.011541-.150222.034624-.035187.023082-.061577.064495-.079171.124238-.017593.059743-.02639.146641-.02639.260696 0 .114054.008797.200953.02639.260696.017594.059743.043984.100477.079171.122201.035187.021725.085261.032587.150222.032587h.223302l-.726748 1.796359-.718627-1.796359h.272023c.06496 0 .115034-.010862.150221-.032587.035187-.021724.061578-.062458.079171-.122201.017594-.059743.02639-.146642.02639-.260696 0-.114055-.008796-.200953-.02639-.260696-.017593-.059743-.043984-.101156-.079171-.124238-.035187-.023083-.085261-.034624-.150221-.034624h-1.640258c-.064961 0-.115035.011541-.150222.034624-.035187.023082-.061577.064495-.079171.124238-.017593.059743-.02639.146641-.02639.260696 0 .114054.008797.200953.02639.260696.017594.059743.043984.100477.079171.122201.035187.021725.085261.032587.150222.032587h.267963l1.181473 2.753603c.0406.095046.105561.162935.194882.203669s.228715.061101.418184.061101zm5.014154 0c.27067 0 .546753-.025799.828249-.077395.281497-.051596.55758-.122201.828249-.211815.070374-.02444.121125-.056349.152252-.095725s.046691-.094366.046691-.164971c0-.070606-.013534-.156146-.040601-.256623-.035187-.130348-.074434-.222678-.117741-.27699-.043307-.054311-.094735-.081467-.154282-.081467-.03248 0-.064961.005431-.097441.016293-.489912.149357-.944637.224036-1.364175.224036-.259842 0-.474348-.057706-.643517-.173119-.169168-.115412-.279466-.281741-.330893-.498988h2.606548c.092028 0 .157665-.019009.196912-.057027.039247-.038019.058871-.103193.058871-.195523 0-.407337-.073758-.769189-.221273-1.085555-.147515-.316365-.36608-.563483-.655697-.741354-.289616-.177871-.640133-.266806-1.051551-.266806-.408711 0-.765995.084183-1.071852.252549-.305856.168366-.539986.401907-.702387.700621-.162402.298714-.243603.638162-.243603 1.018344 0 .382898.077818.723025.233453 1.020381.155635.297357.38232.530218.680057.698584.297736.168366.652314.25255 1.063731.25255zm.90945-2.391073h-1.786419c.116388-.4182.422245-.6273.91757-.6273.232776 0 .424274.054991.574496.164972s.248339.264091.294353.462328zm5.724662 2.301458c.064961 0 .115035-.010862.150222-.032587.035187-.021724.061577-.062458.079171-.122201.017593-.059743.02639-.146642.02639-.260696 0-.114055-.008797-.200953-.02639-.260696-.017594-.059743-.043984-.101156-.079171-.124238-.035187-.023083-.085261-.034624-.150222-.034624h-1.140872v-4.252606c0-.092329-.019624-.158182-.058871-.197558s-.104884-.059064-.196912-.059064h-1.705218c-.064961 0-.115035.011541-.150222.034623-.035187.023083-.061577.064496-.079171.124238-.017593.059743-.02639.146642-.02639.260697 0 .114054.008797.200953.02639.260696.017594.059742.043984.100476.079171.122201s.085261.032587.150222.032587h.94599v3.674186h-1.108392c-.064961 0-.115035.011541-.150222.034624-.035187.023082-.061577.064495-.079171.124238-.017593.059743-.02639.146641-.02639.260696 0 .114054.008797.200953.02639.260696.017594.059743.043984.100477.079171.122201.035187.021725.085261.032587.150222.032587zm-106.348791 11.768801c.2706696 0 .5467526-.025798.8282489-.077394.2814964-.051596.5575794-.122201.828249-.211816.0703741-.02444.1211246-.056348.1522516-.095724s.0466906-.094367.0466906-.164972-.0135335-.156146-.0406005-.256623c-.035187-.130348-.0744341-.222678-.1177413-.276989-.0433071-.054312-.0947343-.081468-.1542816-.081468-.0324804 0-.0649607.005431-.0974411.016294-.489912.149357-.9446369.224035-1.3641748.224035-.2598428 0-.47434842-.057706-.64351692-.173118s-.27946636-.281742-.33089358-.498989h2.6065482c.0920277 0 .1576651-.019009.1969121-.057027.0392471-.038018.0588707-.103192.0588707-.195522 0-.407338-.0737575-.769189-.2212724-1.085555s-.3660806-.563484-.6556971-.741355-.6401336-.266806-1.0515514-.266806c-.40871109 0-.76599495.084183-1.0718516.252549-.30585664.168367-.53998584.401907-.7023876.700621-.16240176.298715-.24360264.638163-.24360264 1.018345 0 .382897.07781751.723024.23345253 1.02038.15563502.297357.3823208.530218.68005736.698585.29773656.168366.65231373.252549 1.06373155.252549zm.9094498-2.391072h-1.78641933c.11638793-.4182.42224457-.6273.91756993-.6273.2327759 0 .4242746.05499.5744962.164971.1502217.109982.2483394.264091.2943532.462329zm3.5647186 2.391072c.5359258 0 .9825306-.312292 1.3398145-.936877v.59064c0 .09233.0196236.158183.0588706.197559.0392471.039376.1048845.059064.1969122.059064h.9094498c.0649607 0 .1150346-.011542.1502216-.034624.0351871-.023082.0615774-.064495.0791709-.124238s.0263903-.146642.0263903-.260696c0-.114055-.0087968-.200953-.0263903-.260696s-.0439838-.100477-.0791709-.122202c-.035187-.021724-.0852609-.032587-.1502216-.032587h-.3126234v-2.672135c0-.09233-.0196235-.158183-.0588706-.197559s-.1048845-.059064-.1969121-.059064h-1.193653c-.0649607 0-.1150345.010863-.1502216.032587-.035187.021725-.0615773.062459-.0791708.122202-.0175936.059743-.0263903.146641-.0263903.260696 0 .114054.0087967.200953.0263903.260696.0175935.059743.0439838.101155.0791708.124238.0351871.023082.0852609.034624.1502216.034624h.4344247v.66396c0 .249834-.0426304.484732-.1278913.704694-.085261.219963-.1982655.395797-.3390137.527503s-.2896165.197558-.4466048.197558c-.1705219 0-.2923232-.054311-.365404-.162935-.0730808-.108623-.1096212-.268843-.1096212-.480658v-2.028542c0-.09233-.0196235-.158183-.0588706-.197559s-.1048845-.059064-.1969122-.059064h-1.0718516c-.0649607 0-.1150345.010863-.1502216.032587-.035187.021725-.0615773.062459-.0791708.122202-.0175936.059743-.0263903.146641-.0263903.260696 0 .114054.0087967.200953.0263903.260696.0175935.059743.0439838.101155.0791708.124238.0351871.023082.0852609.034624.1502216.034624h.3126234v1.690451c0 .268843.0500739.503062.1502217.702658.1001477.199595.2429259.353705.4283346.462328s.4012677.162935.647577.162935zm12.1314113-.089614c.0649607 0 .1150346-.010863.1502217-.032587.035187-.021725.0615773-.062459.0791708-.122202.0175935-.059742.0263903-.146641.0263903-.260696 0-.114054-.0087968-.200953-.0263903-.260696s-.0439838-.101155-.0791708-.124238c-.0351871-.023082-.085261-.034624-.1502217-.034624h-1.1408723v-4.252605c0-.09233-.0196236-.158183-.0588707-.197559-.039247-.039376-.1048844-.059064-.1969121-.059064h-1.7052184c-.0649608 0-.1150346.011541-.1502217.034624-.035187.023082-.0615773.064495-.0791708.124238-.0175936.059743-.0263903.146641-.0263903.260696s.0087967.200953.0263903.260696c.0175935.059743.0439838.100477.0791708.122201.0351871.021725.0852609.032587.1502217.032587h.9459902v3.674186h-1.108392c-.0649607 0-.1150346.011542-.1502216.034624-.0351871.023083-.0615774.064495-.0791709.124238s-.0263903.146642-.0263903.260696c0 .114055.0087968.200954.0263903.260696.0175935.059743.0439838.100477.0791709.122202.035187.021724.0852609.032587.1502216.032587zm3.3373562.089614c.2706696 0 .5467525-.025798.8282489-.077394s.5575794-.122201.828249-.211816c.0703741-.02444.1211246-.056348.1522516-.095724s.0466905-.094367.0466905-.164972-.0135334-.156146-.0406004-.256623c-.035187-.130348-.0744341-.222678-.1177413-.276989-.0433071-.054312-.0947343-.081468-.1542816-.081468-.0324804 0-.0649607.005431-.0974411.016294-.489912.149357-.9446369.224035-1.3641748.224035-.2598428 0-.4743484-.057706-.6435169-.173118s-.2794664-.281742-.3308936-.498989h2.6065482c.0920277 0 .157665-.019009.1969121-.057027s.0588707-.103192.0588707-.195522c0-.407338-.0737575-.769189-.2212724-1.085555s-.3660806-.563484-.6556971-.741355-.6401336-.266806-1.0515514-.266806c-.4087111 0-.765995.084183-1.0718516.252549-.3058566.168367-.5399858.401907-.7023876.700621-.1624018.298715-.2436026.638163-.2436026 1.018345 0 .382897.0778175.723024.2334525 1.02038.155635.297357.3823208.530218.6800573.698585.2977366.168366.6523138.252549 1.0637316.252549zm.9094498-2.391072h-1.7864193c.1163879-.4182.4222445-.6273.9175699-.6273.2327759 0 .4242746.05499.5744962.164971.1502216.109982.2483394.264091.2943532.462329zm4.060044 2.391072c.4114177 0 .7714083-.084183 1.0799717-.252549.3085633-.168367.5460759-.401907.7125377-.700621.1664618-.298715.2496927-.638163.2496927-1.018344 0-.380182-.0832309-.71963-.2496927-1.018345-.1664618-.298714-.4039744-.532254-.7125377-.700621-.3085634-.168366-.668554-.252549-1.0799717-.252549-.4114178 0-.7714084.084183-1.0799717.252549-.3085634.168367-.5460759.401907-.7125377.700621-.1664618.298715-.2496927.638163-.2496927 1.018345 0 .380181.0832309.719629.2496927 1.018344.1664618.298714.4039743.532254.7125377.700621.3085633.168366.6685539.252549 1.0799717.252549zm0-.924657c-.1948822 0-.3640506-.04277-.5075055-.128311s-.2537528-.207063-.3308936-.364567c-.0771409-.157504-.1157113-.342164-.1157113-.553979 0-.211816.0385704-.396476.1157113-.55398.0771408-.157504.1874387-.279026.3308936-.364567s.3126233-.128311.5075055-.128311c.1948821 0 .3640506.04277.5075055.128311.1434548.085541.2537527.207063.3308935.364567.0771409.157504.1157113.342164.1157113.55398 0 .211815-.0385704.396475-.1157113.553979-.0771408.157504-.1874387.279026-.3308935.364567-.1434549.085541-.3126234.128311-.5075055.128311zm4.9857339.875776c.2354826 0 .4060044-.019688.5115656-.059063.1055611-.039376.1583417-.105229.1583417-.197559v-1.034638c0-.09233-.0527806-.158183-.1583417-.197559-.1055612-.039376-.276083-.059064-.5115656-.059064-.2354825 0-.4060044.019688-.5115655.059064s-.1583417.105229-.1583417.197559v1.034638c0 .09233.0527806.158183.1583417.197559.1055611.039375.276083.059063.5115655.059063z" fill="#333d51"/></g></g></g></svg>